MerriweatherSans-Bold.ufo
<glyph name="numbersign" format="1">
  <advance width="1645"/>
  <unicode hex="0023"/>
  <outline>
    <contour>
      <point x="352" y="0" type="line"/>
      <point x="610" y="0" type="line"/>
      <point x="742" y="1373" type="line"/>
      <point x="481" y="1373" type="line"/>
    </contour>
    <contour>
      <point x="891" y="0" type="line"/>
      <point x="1145" y="0" type="line"/>
      <point x="1275" y="1373" type="line"/>
      <point x="1016" y="1373" type="line"/>
    </contour>
    <contour>
      <point x="1449" y="856" type="line"/>
      <point x="1449" y="1058" type="line"/>
      <point x="234" y="1058" type="line"/>
      <point x="234" y="856" type="line"/>
    </contour>
    <contour>
      <point x="1405" y="326" type="line"/>
      <point x="1405" y="536" type="line"/>
      <point x="196" y="536" type="line"/>
      <point x="196" y="326" type="line"/>
    </contour>
  </outline>
</glyph>
<glyph name="dollar" format="1">
  <advance width="1410"/>
  <unicode hex="0024"/>
  <outline>
    <contour>
      <point x="614" y="1475" type="line"/>
      <point x="798" y="1475" type="line"/>
      <point x="806" y="1763" type="line"/>
      <point x="623" y="1763" type="line"/>
    </contour>
    <contour>
      <point x="565" y="-225" type="line"/>
      <point x="749" y="-225" type="line"/>
      <point x="756" y="60" type="line"/>
      <point x="573" y="60" type="line"/>
    </contour>
    <component base="S" xOffset="84"/>
  </outline>
</glyph>
<glyph name="percent" format="1">
  <advance width="2188"/>
  <unicode hex="0025"/>
  <outline>
    <contour>
      <point x="498" y="627" type="curve" smooth="yes"/>
      <point x="721" y="629"/>
      <point x="926" y="789"/>
      <point x="926" y="1078" type="curve" smooth="yes"/>
      <point x="926" y="1326"/>
      <point x="807" y="1526"/>
      <point x="531" y="1523" type="curve" smooth="yes"/>
      <point x="308" y="1521"/>
      <point x="103" y="1360"/>
      <point x="103" y="1071" type="curve" smooth="yes"/>
      <point x="103" y="826"/>
      <point x="233" y="625"/>
    </contour>
    <contour>
      <point x="675" y="0" type="line"/>
      <point x="921" y="0" type="line"/>
      <point x="1514" y="1530" type="line"/>
      <point x="1267" y="1530" type="line"/>
    </contour>
    <contour>
      <point x="512" y="824" type="curve" smooth="yes"/>
      <point x="410" y="824"/>
      <point x="352" y="930"/>
      <point x="352" y="1080" type="curve" smooth="yes"/>
      <point x="352" y="1233"/>
      <point x="410" y="1327"/>
      <point x="516" y="1327" type="curve" smooth="yes"/>
      <point x="618" y="1327"/>
      <point x="677" y="1225"/>
      <point x="677" y="1070" type="curve" smooth="yes"/>
      <point x="677" y="917"/>
      <point x="618" y="824"/>
    </contour>
    <contour>
      <point x="1656" y="12" type="curve" smooth="yes"/>
      <point x="1880" y="14"/>
      <point x="2085" y="174"/>
      <point x="2085" y="464" type="curve" smooth="yes"/>
      <point x="2085" y="712"/>
      <point x="1965" y="912"/>
      <point x="1690" y="909" type="curve" smooth="yes"/>
      <point x="1466" y="907"/>
      <point x="1261" y="746"/>
      <point x="1261" y="456" type="curve" smooth="yes"/>
      <point x="1261" y="212"/>
      <point x="1391" y="11"/>
    </contour>
    <contour>
      <point x="1671" y="210" type="curve" smooth="yes"/>
      <point x="1569" y="210"/>
      <point x="1510" y="315"/>
      <point x="1510" y="466" type="curve" smooth="yes"/>
      <point x="1510" y="619"/>
      <point x="1569" y="713"/>
      <point x="1675" y="713" type="curve" smooth="yes"/>
      <point x="1777" y="713"/>
      <point x="1835" y="610"/>
      <point x="1835" y="456" type="curve" smooth="yes"/>
      <point x="1835" y="303"/>
      <point x="1777" y="210"/>
    </contour>
  </outline>
</glyph>
<glyph name="ampersand" format="1">
  <advance width="1542"/>
  <unicode hex="0026"/>
  <outline>
    <contour>
      <point x="971" y="274" type="curve"/>
      <point x="895" y="245"/>
      <point x="827" y="217"/>
      <point x="688" y="217" type="curve" smooth="yes"/>
      <point x="463" y="217"/>
      <point x="383" y="294"/>
      <point x="383" y="416" type="curve" smooth="yes"/>
      <point x="383" y="523"/>
      <point x="471" y="593"/>
      <point x="615" y="648" type="curve"/>
      <point x="624" y="652"/>
      <point x="705" y="673"/>
      <point x="715" y="677" type="curve"/>
      <point x="952" y="786"/>
      <point x="1113" y="899"/>
      <point x="1113" y="1182" type="curve" smooth="yes"/>
      <point x="1113" y="1380"/>
      <point x="955" y="1546"/>
      <point x="699" y="1546" type="curve" smooth="yes"/>
      <point x="431" y="1546"/>
      <point x="256" y="1406"/>
      <point x="256" y="1168" type="curve" smooth="yes"/>
      <point x="256" y="948"/>
      <point x="374" y="828"/>
      <point x="460" y="705" type="curve"/>
      <point x="478" y="677" type="line"/>
      <point x="580" y="537"/>
      <point x="798" y="276"/>
      <point x="926" y="148" type="curve" smooth="yes"/>
      <point x="1032" y="53"/>
      <point x="1133" y="-16"/>
      <point x="1323" y="-16" type="curve" smooth="yes"/>
      <point x="1384" y="-16"/>
      <point x="1434" y="-9"/>
      <point x="1466" y="-1" type="curve"/>
      <point x="1466" y="166" type="line"/>
      <point x="1325" y="171"/>
      <point x="1265" y="200"/>
      <point x="1157" y="298" type="curve" smooth="yes"/>
      <point x="1045" y="399"/>
      <point x="834" y="656"/>
      <point x="762" y="755" type="curve"/>
      <point x="730" y="797" type="line"/>
      <point x="593" y="994"/>
      <point x="535" y="1038"/>
      <point x="535" y="1173" type="curve" smooth="yes"/>
      <point x="535" y="1274"/>
      <point x="601" y="1337"/>
      <point x="700" y="1337" type="curve" smooth="yes"/>
      <point x="813" y="1337"/>
      <point x="855" y="1244"/>
      <point x="855" y="1179" type="curve" smooth="yes"/>
      <point x="855" y="1003"/>
      <point x="743" y="918"/>
      <point x="574" y="852" type="curve"/>
      <point x="569" y="850"/>
      <point x="513" y="835"/>
      <point x="508" y="833" type="curve"/>
      <point x="280" y="754"/>
      <point x="88" y="615"/>
      <point x="88" y="399" type="curve" smooth="yes"/>
      <point x="88" y="133"/>
      <point x="305" y="-16"/>
      <point x="735" y="-16" type="curve" smooth="yes"/>
      <point x="890" y="-16"/>
      <point x="1057" y="55"/>
      <point x="1155" y="113" type="curve"/>
      <point x="1163" y="117"/>
      <point x="1187" y="150"/>
      <point x="1194" y="155" type="curve"/>
      <point x="1320" y="238"/>
      <point x="1404" y="369"/>
      <point x="1404" y="576" type="curve" smooth="yes"/>
      <point x="1404" y="671"/>
      <point x="1391" y="728"/>
      <point x="1384" y="757" type="curve"/>
      <point x="1126" y="757" type="line"/>
      <point x="1131" y="729"/>
      <point x="1150" y="670"/>
      <point x="1150" y="577" type="curve" smooth="yes"/>
      <point x="1150" y="470"/>
      <point x="1099" y="373"/>
      <point x="1013" y="325" type="curve"/>
      <point x="1007" y="320"/>
      <point x="985" y="282"/>
    </contour>
  </outline>
</glyph>
<glyph name="quotesingle" format="1">
  <advance width="737"/>
  <unicode hex="0027"/>
  <outline>
    <contour>
      <point x="254" y="966" type="line"/>
      <point x="485" y="966" type="line"/>
      <point x="521" y="1685" type="line"/>
      <point x="216" y="1685" type="line"/>
    </contour>
  </outline>
</glyph>
<glyph name="asterisk" format="1">
  <advance width="1348"/>
  <unicode hex="002A"/>
  <outline>
    <contour>
      <point x="563" y="602" type="line"/>
      <point x="799" y="603" type="line"/>
      <point x="772" y="896" type="line"/>
      <point x="767" y="927"/>
      <point x="729" y="1056"/>
      <point x="725" y="1078" type="curve"/>
      <point x="866" y="948" type="line"/>
      <point x="1099" y="786" type="line"/>
      <point x="1218" y="1000" type="line"/>
      <point x="960" y="1123" type="line"/>
      <point x="777" y="1172" type="line"/>
      <point x="958" y="1227" type="line"/>
      <point x="1211" y="1358" type="line"/>
      <point x="1099" y="1564" type="line"/>
      <point x="857" y="1398" type="line"/>
      <point x="834" y="1378"/>
      <point x="740" y="1278"/>
      <point x="724" y="1264" type="curve"/>
      <point x="767" y="1448" type="line"/>
      <point x="784" y="1736" type="line"/>
      <point x="548" y="1736" type="line"/>
      <point x="574" y="1443" type="line"/>
      <point x="578" y="1411"/>
      <point x="617" y="1283"/>
      <point x="620" y="1261" type="curve"/>
      <point x="483" y="1391" type="line"/>
      <point x="240" y="1555" type="line"/>
      <point x="130" y="1347" type="line"/>
      <point x="387" y="1219" type="line"/>
      <point x="415" y="1208"/>
      <point x="549" y="1179"/>
      <point x="569" y="1171" type="curve"/>
      <point x="388" y="1118" type="line"/>
      <point x="136" y="983" type="line"/>
      <point x="253" y="776" type="line"/>
      <point x="488" y="942" type="line"/>
      <point x="623" y="1080" type="line"/>
      <point x="580" y="895" type="line"/>
    </contour>
  </outline>
</glyph>
<glyph name="plus" format="1">
  <advance width="1403"/>
  <unicode hex="002B"/>
  <outline>
    <contour>
      <point x="578" y="260" type="line"/>
      <point x="824" y="260" type="line"/>
      <point x="824" y="474" type="line"/>
      <point x="817" y="662" type="line"/>
      <point x="968" y="656" type="line"/>
      <point x="1190" y="656" type="line"/>
      <point x="1190" y="893" type="line"/>
      <point x="968" y="893" type="line"/>
      <point x="817" y="886" type="line"/>
      <point x="824" y="1073" type="line"/>
      <point x="824" y="1290" type="line"/>
      <point x="578" y="1290" type="line"/>
      <point x="578" y="1073" type="line"/>
      <point x="584" y="886" type="line"/>
      <point x="422" y="893" type="line"/>
      <point x="213" y="893" type="line"/>
      <point x="213" y="656" type="line"/>
      <point x="422" y="656" type="line"/>
      <point x="584" y="662" type="line"/>
      <point x="578" y="474" type="line"/>
    </contour>
  </outline>
</glyph>
<glyph name="comma" format="1">
  <advance width="693"/>
  <unicode hex="002C"/>
  <outline>
    <contour>
      <point x="176" y="-408" type="line"/>
      <point x="282" y="-506" type="line"/>
      <point x="440" y="-451"/>
      <point x="569" y="-249"/>
      <point x="569" y="-22" type="curve" smooth="yes"/>
      <point x="569" y="94"/>
      <point x="510" y="249"/>
      <point x="385" y="296" type="curve"/>
      <point x="163" y="160" type="line"/>
      <point x="163" y="73" type="line"/>
      <point x="214" y="70"/>
      <point x="280" y="-43"/>
      <point x="280" y="-136" type="curve" smooth="yes"/>
      <point x="280" y="-243"/>
      <point x="229" y="-350"/>
      <point x="176" y="-382" type="curve"/>
    </contour>
  </outline>
</glyph>
<glyph name="zero" format="1">
  <advance width="1409"/>
  <unicode hex="0030"/>
  <outline>
    <contour>
      <point x="697" y="-16" type="curve" smooth="yes"/>
      <point x="1057" y="-16"/>
      <point x="1282" y="250"/>
      <point x="1285" y="635" type="curve" smooth="yes"/>
      <point x="1288" y="987"/>
      <point x="1161" y="1272"/>
      <point x="722" y="1272" type="curve" smooth="yes"/>
      <point x="375" y="1272"/>
      <point x="129" y="1030"/>
      <point x="124" y="642" type="curve" smooth="yes"/>
      <point x="120" y="300"/>
      <point x="270" y="-16"/>
    </contour>
    <contour>
      <point x="705" y="201" type="curve" smooth="yes"/>
      <point x="522" y="206"/>
      <point x="439" y="423"/>
      <point x="439" y="651" type="curve" smooth="yes"/>
      <point x="439" y="901"/>
      <point x="532" y="1058"/>
      <point x="709" y="1055" type="curve" smooth="yes"/>
      <point x="892" y="1053"/>
      <point x="970" y="862"/>
      <point x="970" y="626" type="curve" smooth="yes"/>
      <point x="970" y="355"/>
      <point x="883" y="196"/>
    </contour>
  </outline>
</glyph>
<glyph name="two" format="1">
  <advance width="1361"/>
  <unicode hex="0032"/>
  <outline>
    <contour>
      <point x="186" y="0" type="line"/>
      <point x="1209" y="0" type="line"/>
      <point x="1209" y="264" type="line"/>
      <point x="470" y="236" type="line"/>
      <point x="469" y="140" type="line"/>
      <point x="873" y="346"/>
      <point x="1138" y="599"/>
      <point x="1138" y="895" type="curve" smooth="yes"/>
      <point x="1138" y="1098"/>
      <point x="1011" y="1292"/>
      <point x="649" y="1292" type="curve" smooth="yes"/>
      <point x="409" y="1292"/>
      <point x="232" y="1178"/>
      <point x="151" y="1093" type="curve"/>
      <point x="268" y="910" type="line"/>
      <point x="337" y="979"/>
      <point x="468" y="1044"/>
      <point x="598" y="1044" type="curve" smooth="yes"/>
      <point x="746" y="1044"/>
      <point x="811" y="955"/>
      <point x="811" y="837" type="curve" smooth="yes"/>
      <point x="811" y="573"/>
      <point x="397" y="297"/>
      <point x="143" y="155" type="curve"/>
    </contour>
  </outline>
</glyph>
<glyph name="four" format="1">
  <advance width="1412"/>
  <unicode hex="0034"/>
  <outline>
    <contour>
      <point x="176" y="0" type="line"/>
      <point x="1361" y="0" type="line"/>
      <point x="1361" y="234" type="line"/>
      <point x="440" y="234" type="line"/>
      <point x="516" y="361" type="line"/>
      <point x="977" y="1211" type="line"/>
      <point x="733" y="1334" type="line"/>
      <point x="660" y="1334" type="line"/>
      <point x="100" y="133" type="line"/>
    </contour>
    <contour>
      <point x="828" y="-376" type="line"/>
      <point x="1128" y="-376" type="line"/>
      <point x="1128" y="644" type="line"/>
      <point x="866" y="644" type="line"/>
      <point x="828" y="234" type="line"/>
    </contour>
  </outline>
</glyph>
<glyph name="five" format="1">
  <advance width="1293"/>
  <unicode hex="0035"/>
  <outline>
    <contour>
      <point x="327" y="-354" type="curve" smooth="yes"/>
      <point x="832" y="-351"/>
      <point x="1151" y="-89"/>
      <point x="1151" y="245" type="curve" smooth="yes"/>
      <point x="1151" y="511"/>
      <point x="990" y="685"/>
      <point x="710" y="685" type="curve" smooth="yes"/>
      <point x="632" y="685"/>
      <point x="556" y="672"/>
      <point x="458" y="650" type="curve"/>
      <point x="491" y="985" type="line"/>
      <point x="1084" y="985" type="line"/>
      <point x="1112" y="1252" type="line"/>
      <point x="265" y="1252" type="line"/>
      <point x="199" y="415" type="line"/>
      <point x="249" y="385" type="line"/>
      <point x="356" y="420"/>
      <point x="461" y="451"/>
      <point x="546" y="451" type="curve" smooth="yes"/>
      <point x="755" y="450"/>
      <point x="832" y="379"/>
      <point x="832" y="234" type="curve" smooth="yes"/>
      <point x="832" y="20"/>
      <point x="602" y="-125"/>
      <point x="272" y="-125" type="curve" smooth="yes"/>
      <point x="246" y="-125"/>
      <point x="220" y="-124"/>
      <point x="193" y="-123" type="curve"/>
      <point x="192" y="-341" type="line"/>
      <point x="230" y="-352"/>
      <point x="291" y="-354"/>
    </contour>
  </outline>
</glyph>
<glyph name="six" format="1">
  <advance width="1414"/>
  <unicode hex="0036"/>
  <outline>
    <contour>
      <point x="127" y="586" type="curve" smooth="yes"/>
      <point x="127" y="259"/>
      <point x="336" y="-16"/>
      <point x="690" y="-16" type="curve" smooth="yes"/>
      <point x="1098" y="-16"/>
      <point x="1285" y="252"/>
      <point x="1285" y="554" type="curve" smooth="yes"/>
      <point x="1285" y="805"/>
      <point x="1129" y="1017"/>
      <point x="852" y="1017" type="curve" smooth="yes"/>
      <point x="701" y="1017"/>
      <point x="597" y="962"/>
      <point x="560" y="923" type="curve"/>
      <point x="623" y="742" type="line"/>
      <point x="652" y="757"/>
      <point x="701" y="778"/>
      <point x="779" y="778" type="curve" smooth="yes"/>
      <point x="881" y="778"/>
      <point x="969" y="708"/>
      <point x="969" y="483" type="curve" smooth="yes"/>
      <point x="969" y="315"/>
      <point x="889" y="202"/>
      <point x="719" y="202" type="curve" smooth="yes"/>
      <point x="523" y="202"/>
      <point x="457" y="410"/>
      <point x="461" y="675" type="curve" smooth="yes"/>
      <point x="466" y="968"/>
      <point x="697" y="1335"/>
      <point x="1077" y="1433" type="curve"/>
      <point x="1001" y="1620" type="line"/>
      <point x="633" y="1562"/>
      <point x="127" y="1175"/>
    </contour>
  </outline>
</glyph>
<glyph name="seven" format="1">
  <advance width="1286"/>
  <unicode hex="0037"/>
  <outline>
    <contour>
      <point x="264" y="-302" type="curve"/>
      <point x="582" y="-394" type="line"/>
      <point x="1184" y="1154" type="line"/>
      <point x="1107" y="1271" type="line"/>
      <point x="106" y="1271" type="line"/>
      <point x="106" y="997" type="line"/>
      <point x="836" y="996" type="line"/>
      <point x="701" y="666"/>
      <point x="477" y="141"/>
    </contour>
  </outline>
</glyph>
<glyph name="eight" format="1">
  <advance width="1356"/>
  <unicode hex="0038"/>
  <outline>
    <contour>
      <point x="692" y="-16" type="curve" smooth="yes"/>
      <point x="997" y="-16"/>
      <point x="1238" y="131"/>
      <point x="1235" y="410" type="curve" smooth="yes"/>
      <point x="1231" y="836"/>
      <point x="468" y="886"/>
      <point x="468" y="1193" type="curve" smooth="yes"/>
      <point x="468" y="1291"/>
      <point x="562" y="1355"/>
      <point x="678" y="1355" type="curve" smooth="yes"/>
      <point x="816" y="1355"/>
      <point x="895" y="1283"/>
      <point x="895" y="1187" type="curve" smooth="yes"/>
      <point x="899" y="1069"/>
      <point x="831" y="953"/>
      <point x="679" y="907" type="curve"/>
      <point x="805" y="779" type="line"/>
      <point x="1058" y="848"/>
      <point x="1172" y="1050"/>
      <point x="1172" y="1212" type="curve" smooth="yes"/>
      <point x="1172" y="1421"/>
      <point x="990" y="1565"/>
      <point x="682" y="1565" type="curve" smooth="yes"/>
      <point x="373" y="1565"/>
      <point x="180" y="1406"/>
      <point x="180" y="1174" type="curve" smooth="yes"/>
      <point x="180" y="671"/>
      <point x="924" y="673"/>
      <point x="924" y="378" type="curve" smooth="yes"/>
      <point x="924" y="267"/>
      <point x="815" y="204"/>
      <point x="693" y="204" type="curve" smooth="yes"/>
      <point x="502" y="204"/>
      <point x="424" y="293"/>
      <point x="424" y="403" type="curve" smooth="yes"/>
      <point x="424" y="553"/>
      <point x="526" y="645"/>
      <point x="663" y="699" type="curve"/>
      <point x="528" y="829" type="line"/>
      <point x="234" y="719"/>
      <point x="129" y="546"/>
      <point x="129" y="385" type="curve" smooth="yes"/>
      <point x="129" y="117"/>
      <point x="369" y="-16"/>
    </contour>
  </outline>
</glyph>
<glyph name="nine" format="1">
  <advance width="1427"/>
  <unicode hex="0039"/>
  <outline>
    <contour>
      <point x="135" y="708" type="curve" smooth="yes"/>
      <point x="135" y="454"/>
      <point x="291" y="234"/>
      <point x="570" y="234" type="curve" smooth="yes"/>
      <point x="730" y="234"/>
      <point x="828" y="288"/>
      <point x="863" y="328" type="curve"/>
      <point x="803" y="506" type="line"/>
      <point x="770" y="491"/>
      <point x="735" y="473"/>
      <point x="649" y="473" type="curve" smooth="yes"/>
      <point x="534" y="473"/>
      <point x="449" y="566"/>
      <point x="449" y="790" type="curve" smooth="yes"/>
      <point x="449" y="946"/>
      <point x="538" y="1052"/>
      <point x="698" y="1052" type="curve" smooth="yes"/>
      <point x="889" y="1052"/>
      <point x="960" y="854"/>
      <point x="956" y="579" type="curve" smooth="yes"/>
      <point x="952" y="294"/>
      <point x="716" y="-111"/>
      <point x="320" y="-210" type="curve"/>
      <point x="403" y="-394" type="line"/>
      <point x="771" y="-334"/>
      <point x="1288" y="66"/>
      <point x="1288" y="670" type="curve"/>
      <point x="1288" y="997"/>
      <point x="1088" y="1272"/>
      <point x="729" y="1272" type="curve" smooth="yes"/>
      <point x="332" y="1272"/>
      <point x="135" y="1025"/>
    </contour>
  </outline>
</glyph>
<glyph name="at" format="1">
  <advance width="2228"/>
  <unicode hex="0040"/>
  <outline>
    <contour>
      <point x="1053" y="-468" type="curve" smooth="yes"/>
      <point x="1303" y="-468"/>
      <point x="1465" y="-402"/>
      <point x="1565" y="-342" type="curve"/>
      <point x="1522" y="-183" type="line"/>
      <point x="1442" y="-226"/>
      <point x="1330" y="-291"/>
      <point x="1073" y="-291" type="curve" smooth="yes"/>
      <point x="740" y="-291"/>
      <point x="382" y="-111"/>
      <point x="382" y="448" type="curve" smooth="yes"/>
      <point x="382" y="1018"/>
      <point x="784" y="1366"/>
      <point x="1236" y="1366" type="curve" smooth="yes"/>
      <point x="1548" y="1366"/>
      <point x="1847" y="1254"/>
      <point x="1847" y="775" type="curve" smooth="yes"/>
      <point x="1847" y="424"/>
      <point x="1676" y="196"/>
      <point x="1529" y="196" type="curve" smooth="yes"/>
      <point x="1479" y="196"/>
      <point x="1466" y="247"/>
      <point x="1498" y="428" type="curve" smooth="yes"/>
      <point x="1532" y="616"/>
      <point x="1592" y="911"/>
      <point x="1626" y="1056" type="curve"/>
      <point x="1441" y="1025" type="line"/>
      <point x="1385" y="1064"/>
      <point x="1295" y="1080"/>
      <point x="1209" y="1080" type="curve" smooth="yes"/>
      <point x="799" y="1080"/>
      <point x="624" y="715"/>
      <point x="617" y="440" type="curve" smooth="yes"/>
      <point x="611" y="140"/>
      <point x="771" y="-5"/>
      <point x="904" y="-5" type="curve" smooth="yes"/>
      <point x="1153" y="-5"/>
      <point x="1307" y="286"/>
      <point x="1390" y="533" type="curve"/>
      <point x="1386" y="533"/>
      <point x="1319" y="533"/>
      <point x="1315" y="533" type="curve"/>
      <point x="1266" y="347"/>
      <point x="1264" y="245"/>
      <point x="1268" y="182" type="curve" smooth="yes"/>
      <point x="1277" y="61"/>
      <point x="1334" y="-5"/>
      <point x="1457" y="-5" type="curve" smooth="yes"/>
      <point x="1751" y="-5"/>
      <point x="2056" y="268"/>
      <point x="2056" y="805" type="curve" smooth="yes"/>
      <point x="2056" y="1288"/>
      <point x="1718" y="1543"/>
      <point x="1254" y="1543" type="curve" smooth="yes"/>
      <point x="658" y="1543"/>
      <point x="171" y="1104"/>
      <point x="171" y="440" type="curve" smooth="yes"/>
      <point x="171" y="-186"/>
      <point x="571" y="-468"/>
    </contour>
    <contour>
      <point x="974" y="222" type="curve" smooth="yes"/>
      <point x="899" y="222"/>
      <point x="858" y="296"/>
      <point x="860" y="466" type="curve" smooth="yes"/>
      <point x="863" y="661"/>
      <point x="992" y="883"/>
      <point x="1177" y="883" type="curve" smooth="yes"/>
      <point x="1251" y="883"/>
      <point x="1310" y="863"/>
      <point x="1335" y="829" type="curve"/>
      <point x="1304" y="604"/>
      <point x="1112" y="222"/>
    </contour>
  </outline>
</glyph>
<glyph name="A" format="1">
  <advance width="1421"/>
  <unicode hex="0041"/>
  <outline>
    <contour>
      <point x="327" y="0" type="line"/>
      <point x="662" y="1073" type="line"/>
      <point x="706" y="1230" type="line"/>
      <point x="749" y="1073" type="line"/>
      <point x="1089" y="0" type="line"/>
      <point x="1436" y="0" type="line"/>
      <point x="869" y="1538" type="line"/>
      <point x="547" y="1538" type="line"/>
      <point x="-15" y="0" type="line"/>
    </contour>
    <contour>
      <point x="300" y="322" type="line"/>
      <point x="1082" y="322" type="line"/>
      <point x="1040" y="551" type="line"/>
      <point x="342" y="551" type="line"/>
    </contour>
    <contour>
      <point x="679" y="-170" type="move" name="btm"/>
    </contour>
    <contour>
      <point x="711" y="1700" type="move" name="top"/>
    </contour>
  </outline>
</glyph>
<glyph name="B" format="1">
  <advance width="1422"/>
  <unicode hex="0042"/>
  <outline>
    <contour>
      <point x="188" y="0" type="line"/>
      <point x="349" y="0" type="line"/>
      <point x="428" y="-5"/>
      <point x="584" y="-14"/>
      <point x="715" y="-14" type="curve" smooth="yes"/>
      <point x="1195" y="-14"/>
      <point x="1338" y="186"/>
      <point x="1338" y="461" type="curve" smooth="yes"/>
      <point x="1338" y="658"/>
      <point x="1208" y="789"/>
      <point x="1029" y="809" type="curve"/>
      <point x="1173" y="847"/>
      <point x="1257" y="987"/>
      <point x="1257" y="1152" type="curve" smooth="yes"/>
      <point x="1257" y="1378"/>
      <point x="1086" y="1537"/>
      <point x="700" y="1537" type="curve" smooth="yes"/>
      <point x="547" y="1537"/>
      <point x="444" y="1522"/>
      <point x="342" y="1522" type="curve"/>
      <point x="188" y="1523" type="line"/>
    </contour>
    <contour>
      <point x="503" y="893" type="curve"/>
      <point x="503" y="1291" type="line"/>
      <point x="526" y="1301"/>
      <point x="631" y="1304"/>
      <point x="666" y="1304" type="curve" smooth="yes"/>
      <point x="849" y="1304"/>
      <point x="954" y="1252"/>
      <point x="954" y="1125" type="curve" smooth="yes"/>
      <point x="954" y="953"/>
      <point x="878" y="884"/>
      <point x="694" y="884" type="curve" smooth="yes"/>
      <point x="653" y="884"/>
      <point x="544" y="886"/>
    </contour>
    <contour>
      <point x="503" y="232" type="curve"/>
      <point x="503" y="664" type="line"/>
      <point x="532" y="669"/>
      <point x="658" y="671"/>
      <point x="723" y="671" type="curve" smooth="yes"/>
      <point x="926" y="671"/>
      <point x="1016" y="603"/>
      <point x="1016" y="447" type="curve" smooth="yes"/>
      <point x="1016" y="267"/>
      <point x="915" y="206"/>
      <point x="724" y="206" type="curve" smooth="yes"/>
      <point x="659" y="206"/>
      <point x="532" y="209"/>
    </contour>
    <contour>
      <point x="802" y="-170" type="move" name="btm"/>
    </contour>
    <contour>
      <point x="706" y="1701" type="move" name="top"/>
    </contour>
  </outline>
</glyph>
<glyph name="D" format="1">
  <advance width="1554"/>
  <unicode hex="0044"/>
  <outline>
    <contour>
      <point x="188" y="0" type="line"/>
      <point x="342" y="0" type="line" smooth="yes"/>
      <point x="434" y="0"/>
      <point x="542" y="-15"/>
      <point x="684" y="-16" type="curve" smooth="yes"/>
      <point x="1153" y="-20"/>
      <point x="1454" y="282"/>
      <point x="1454" y="801" type="curve" smooth="yes"/>
      <point x="1454" y="1267"/>
      <point x="1218" y="1538"/>
      <point x="708" y="1538" type="curve" smooth="yes"/>
      <point x="542" y="1538"/>
      <point x="428" y="1522"/>
      <point x="339" y="1522" type="curve" smooth="yes"/>
      <point x="188" y="1522" type="line"/>
    </contour>
    <contour>
      <point x="509" y="246" type="curve"/>
      <point x="509" y="1284" type="line"/>
      <point x="546" y="1287"/>
      <point x="616" y="1298"/>
      <point x="678" y="1298" type="curve" smooth="yes"/>
      <point x="975" y="1298"/>
      <point x="1118" y="1163"/>
      <point x="1118" y="767" type="curve" smooth="yes"/>
      <point x="1118" y="388"/>
      <point x="955" y="230"/>
      <point x="713" y="228" type="curve" smooth="yes"/>
      <point x="640" y="228"/>
      <point x="562" y="232"/>
    </contour>
    <contour>
      <point x="771" y="-170" type="move" name="btm"/>
    </contour>
    <contour>
      <point x="766" y="1700" type="move" name="top"/>
    </contour>
  </outline>
</glyph>
<glyph name="E" format="1">
  <advance width="1254"/>
  <unicode hex="0045"/>
  <outline>
    <contour>
      <point x="188" y="0" type="line"/>
      <point x="1181" y="0" type="line"/>
      <point x="1181" y="251" type="line"/>
      <point x="506" y="251" type="line"/>
      <point x="506" y="659" type="line"/>
      <point x="974" y="659" type="line"/>
      <point x="974" y="900" type="line"/>
      <point x="506" y="900" type="line"/>
      <point x="506" y="1278" type="line"/>
      <point x="1116" y="1278" type="line"/>
      <point x="1116" y="1522" type="line"/>
      <point x="188" y="1522" type="line"/>
    </contour>
    <contour>
      <point x="702" y="-170" type="move" name="btm"/>
    </contour>
    <contour>
      <point x="700" y="1700" type="move" name="top"/>
    </contour>
  </outline>
</glyph>
<glyph name="F" format="1">
  <advance width="1145"/>
  <unicode hex="0046"/>
  <outline>
    <contour>
      <point x="188" y="0" type="line"/>
      <point x="510" y="0" type="line"/>
      <point x="510" y="634" type="line"/>
      <point x="952" y="634" type="line"/>
      <point x="952" y="879" type="line"/>
      <point x="510" y="879" type="line"/>
      <point x="510" y="1278" type="line"/>
      <point x="1111" y="1278" type="line"/>
      <point x="1111" y="1522" type="line"/>
      <point x="188" y="1522" type="line"/>
    </contour>
    <contour>
      <point x="679" y="-170" type="move" name="btm"/>
    </contour>
    <contour>
      <point x="680" y="1701" type="move" name="top"/>
    </contour>
  </outline>
</glyph>
<glyph name="I" format="1">
  <advance width="722"/>
  <unicode hex="0049"/>
  <outline>
    <contour>
      <point x="201" y="0" type="line"/>
      <point x="521" y="0" type="line"/>
      <point x="521" y="1522" type="line"/>
      <point x="201" y="1522" type="line"/>
    </contour>
    <contour>
      <point x="364" y="-170" type="move" name="btm"/>
    </contour>
    <contour>
      <point x="361" y="1700" type="move" name="top"/>
    </contour>
  </outline>
</glyph>
<glyph name="J" format="1">
  <advance width="798"/>
  <unicode hex="004A"/>
  <outline>
    <contour>
      <point x="67" y="-332" type="line"/>
      <point x="238" y="-326"/>
      <point x="527" y="-190"/>
      <point x="580" y="91" type="curve" smooth="yes"/>
      <point x="608" y="236"/>
      <point x="599" y="414"/>
      <point x="599" y="613" type="curve" smooth="yes"/>
      <point x="599" y="1522" type="line"/>
      <point x="279" y="1522" type="line"/>
      <point x="279" y="608" type="line" smooth="yes"/>
      <point x="279" y="401"/>
      <point x="275" y="231"/>
      <point x="247" y="117" type="curve" smooth="yes"/>
      <point x="209" y="-45"/>
      <point x="94" y="-125"/>
      <point x="-10" y="-164" type="curve"/>
    </contour>
    <contour>
      <point x="276" y="-170" type="move" name="btm"/>
    </contour>
    <contour>
      <point x="432" y="1701" type="move" name="top"/>
    </contour>
  </outline>
</glyph>
<glyph name="L" format="1">
  <advance width="1120"/>
  <unicode hex="004C"/>
  <outline>
    <contour>
      <point x="188" y="0" type="line"/>
      <point x="1054" y="0" type="line"/>
      <point x="1054" y="242" type="line"/>
      <point x="506" y="242" type="line"/>
      <point x="506" y="1522" type="line"/>
      <point x="188" y="1522" type="line"/>
    </contour>
    <contour>
      <point x="611" y="-170" type="move" name="btm"/>
    </contour>
    <contour>
      <point x="349" y="1700" type="move" name="top"/>
    </contour>
  </outline>
</glyph>
<glyph name="N" format="1">
  <advance width="1620"/>
  <unicode hex="004E"/>
  <outline>
    <contour>
      <point x="188" y="0" type="line"/>
      <point x="484" y="0" type="line"/>
      <point x="484" y="741" type="line"/>
      <point x="430" y="1311" type="line"/>
      <point x="347" y="1311" type="line"/>
      <point x="570" y="861" type="line"/>
      <point x="1113" y="0" type="line"/>
      <point x="1432" y="0" type="line"/>
      <point x="1432" y="1522" type="line"/>
      <point x="1136" y="1522" type="line"/>
      <point x="1136" y="765" type="line"/>
      <point x="1175" y="277" type="line"/>
      <point x="1227" y="277" type="line"/>
      <point x="1050" y="627" type="line"/>
      <point x="483" y="1522" type="line"/>
      <point x="188" y="1522" type="line"/>
    </contour>
    <contour>
      <point x="776" y="-170" type="move" name="btm"/>
    </contour>
    <contour>
      <point x="810" y="1700" type="move" name="top"/>
    </contour>
  </outline>
</glyph>
<glyph name="O" format="1">
  <advance width="1595"/>
  <unicode hex="004F"/>
  <outline>
    <contour>
      <point x="791" y="-16" type="curve" smooth="yes"/>
      <point x="1197" y="-8"/>
      <point x="1487" y="237"/>
      <point x="1497" y="763" type="curve" smooth="yes"/>
      <point x="1506" y="1232"/>
      <point x="1242" y="1550"/>
      <point x="821" y="1538" type="curve" smooth="yes"/>
      <point x="409" y="1526"/>
      <point x="108" y="1296"/>
      <point x="98" y="769" type="curve" smooth="yes"/>
      <point x="89" y="301"/>
      <point x="353" y="-25"/>
    </contour>
    <contour>
      <point x="798" y="221" type="curve" smooth="yes"/>
      <point x="549" y="221"/>
      <point x="427" y="458"/>
      <point x="427" y="758" type="curve" smooth="yes"/>
      <point x="427" y="1149"/>
      <point x="602" y="1296"/>
      <point x="814" y="1296" type="curve" smooth="yes"/>
      <point x="1052" y="1296"/>
      <point x="1168" y="1072"/>
      <point x="1168" y="773" type="curve" smooth="yes"/>
      <point x="1168" y="392"/>
      <point x="1024" y="221"/>
    </contour>
    <contour>
      <point x="795" y="-170" type="move" name="btm"/>
    </contour>
    <contour>
      <point x="823" y="1700" type="move" name="top"/>
    </contour>
  </outline>
</glyph>
<glyph name="Q" format="1">
  <advance width="1595"/>
  <unicode hex="0051"/>
  <outline>
    <contour>
      <point x="1310" y="-326" type="curve" smooth="yes"/>
      <point x="1405" y="-326"/>
      <point x="1521" y="-296"/>
      <point x="1550" y="-275" type="curve"/>
      <point x="1550" y="-56" type="line"/>
      <point x="1504" y="-71"/>
      <point x="1402" y="-81"/>
      <point x="1348" y="-81" type="curve" smooth="yes"/>
      <point x="1149" y="-81"/>
      <point x="998" y="-71"/>
      <point x="958" y="68" type="curve"/>
      <point x="858" y="68" type="line"/>
      <point x="707" y="12" type="line"/>
      <point x="776" y="-250"/>
      <point x="1004" y="-326"/>
    </contour>
    <contour>
      <point x="797" y="-170" type="move" name="btm"/>
    </contour>
    <contour>
      <point x="797" y="1700" type="move" name="top"/>
    </contour>
    <component base="O"/>
  </outline>
</glyph>
<glyph name="S" format="1">
  <advance width="1207"/>
  <unicode hex="0053"/>
  <outline>
    <contour>
      <point x="609" y="-16" type="curve" smooth="yes"/>
      <point x="920" y="-16"/>
      <point x="1132" y="134"/>
      <point x="1132" y="408" type="curve" smooth="yes"/>
      <point x="1132" y="655"/>
      <point x="953" y="764"/>
      <point x="714" y="890" type="curve" smooth="yes"/>
      <point x="529" y="988"/>
      <point x="451" y="1035"/>
      <point x="451" y="1144" type="curve" smooth="yes"/>
      <point x="451" y="1238"/>
      <point x="510" y="1300"/>
      <point x="679" y="1300" type="curve" smooth="yes"/>
      <point x="831" y="1300"/>
      <point x="937" y="1250"/>
      <point x="1011" y="1203" type="curve"/>
      <point x="1063" y="1450" type="line"/>
      <point x="1009" y="1485"/>
      <point x="862" y="1538"/>
      <point x="670" y="1538" type="curve" smooth="yes"/>
      <point x="384" y="1538"/>
      <point x="139" y="1428"/>
      <point x="139" y="1128" type="curve" smooth="yes"/>
      <point x="139" y="879"/>
      <point x="337" y="744"/>
      <point x="517" y="655" type="curve" smooth="yes"/>
      <point x="751" y="539"/>
      <point x="812" y="495"/>
      <point x="812" y="388" type="curve" smooth="yes"/>
      <point x="812" y="286"/>
      <point x="758" y="233"/>
      <point x="589" y="233" type="curve" smooth="yes"/>
      <point x="426" y="233"/>
      <point x="282" y="282"/>
      <point x="197" y="329" type="curve"/>
      <point x="152" y="74" type="line"/>
      <point x="209" y="39"/>
      <point x="410" y="-16"/>
    </contour>
    <contour>
      <point x="605" y="-170" type="move" name="btm"/>
    </contour>
    <contour>
      <point x="649" y="1700" type="move" name="top"/>
    </contour>
  </outline>
</glyph>
<glyph name="T" format="1">
  <advance width="1250"/>
  <unicode hex="0054"/>
  <outline>
    <contour>
      <point x="466" y="0" type="line"/>
      <point x="786" y="0" type="line"/>
      <point x="786" y="1278" type="line"/>
      <point x="1220" y="1278" type="line"/>
      <point x="1220" y="1522" type="line"/>
      <point x="30" y="1522" type="line"/>
      <point x="30" y="1278" type="line"/>
      <point x="466" y="1278" type="line"/>
    </contour>
    <contour>
      <point x="621" y="-170" type="move" name="btm"/>
    </contour>
    <contour>
      <point x="621" y="1700" type="move" name="top"/>
    </contour>
  </outline>
</glyph>
<glyph name="U" format="1">
  <advance width="1525"/>
  <unicode hex="0055"/>
  <outline>
    <contour>
      <point x="758" y="-16" type="curve" smooth="yes"/>
      <point x="1168" y="-16"/>
      <point x="1376" y="214"/>
      <point x="1376" y="640" type="curve" smooth="yes"/>
      <point x="1376" y="1522" type="line"/>
      <point x="1063" y="1522" type="line"/>
      <point x="1063" y="670" type="line" smooth="yes"/>
      <point x="1063" y="331"/>
      <point x="959" y="238"/>
      <point x="767" y="238" type="curve" smooth="yes"/>
      <point x="572" y="238"/>
      <point x="464" y="315"/>
      <point x="465" y="670" type="curve" smooth="yes"/>
      <point x="467" y="1522" type="line"/>
      <point x="152" y="1522" type="line"/>
      <point x="150" y="653" type="line" smooth="yes"/>
      <point x="149" y="250"/>
      <point x="302" y="-16"/>
    </contour>
    <contour>
      <point x="765" y="-170" type="move" name="btm"/>
    </contour>
    <contour>
      <point x="768" y="1700" type="move" name="top"/>
    </contour>
  </outline>
</glyph>
<glyph name="V" format="1">
  <advance width="1386"/>
  <unicode hex="0056"/>
  <outline>
    <contour>
      <point x="561" y="-6" type="line"/>
      <point x="831" y="-6" type="line"/>
      <point x="1391" y="1522" type="line"/>
      <point x="1052" y="1522" type="line"/>
      <point x="783" y="691" type="line"/>
      <point x="701" y="401" type="line"/>
      <point x="620" y="691" type="line"/>
      <point x="336" y="1522" type="line"/>
      <point x="-5" y="1522" type="line"/>
    </contour>
    <contour>
      <point x="695" y="-170" type="move" name="btm"/>
    </contour>
    <contour>
      <point x="695" y="1701" type="move" name="top"/>
    </contour>
  </outline>
</glyph>
<glyph name="X" format="1">
  <advance width="1376"/>
  <unicode hex="0058"/>
  <outline>
    <contour>
      <point x="32" y="0" type="line"/>
      <point x="364" y="0" type="line"/>
      <point x="600" y="425" type="line"/>
      <point x="705" y="614" type="line"/>
      <point x="641" y="613" type="line"/>
      <point x="747" y="425" type="line"/>
      <point x="991" y="0" type="line"/>
      <point x="1344" y="0" type="line"/>
      <point x="845" y="809" type="line"/>
      <point x="858" y="714" type="line"/>
      <point x="1334" y="1522" type="line"/>
      <point x="998" y="1522" type="line"/>
      <point x="778" y="1120" type="line"/>
      <point x="679" y="938" type="line"/>
      <point x="730" y="938" type="line"/>
      <point x="625" y="1120" type="line"/>
      <point x="391" y="1523" type="line"/>
      <point x="43" y="1522" type="line"/>
      <point x="525" y="730" type="line"/>
      <point x="517" y="830" type="line"/>
    </contour>
    <contour>
      <point x="674" y="-170" type="move" name="btm"/>
    </contour>
    <contour>
      <point x="674" y="1700" type="move" name="top"/>
    </contour>
  </outline>
</glyph>
<glyph name="Y" format="1">
  <advance width="1241"/>
  <unicode hex="0059"/>
  <outline>
    <contour>
      <point x="780" y="0" type="line"/>
      <point x="780" y="620" type="line"/>
      <point x="749" y="473" type="line"/>
      <point x="1291" y="1522" type="line"/>
      <point x="950" y="1522" type="line"/>
      <point x="662" y="932" type="line"/>
      <point x="607" y="769" type="line"/>
      <point x="613" y="769"/>
      <point x="638" y="769"/>
      <point x="643" y="769" type="curve"/>
      <point x="580" y="932" type="line"/>
      <point x="300" y="1522" type="line"/>
      <point x="-50" y="1522" type="line"/>
      <point x="492" y="475" type="line"/>
      <point x="461" y="626" type="line"/>
      <point x="461" y="0" type="line"/>
    </contour>
    <contour>
      <point x="639" y="-170" type="move" name="btm"/>
    </contour>
    <contour>
      <point x="639" y="1700" type="move" name="top"/>
    </contour>
  </outline>
</glyph>
<glyph name="Z" format="1">
  <advance width="1306"/>
  <unicode hex="005A"/>
  <outline>
    <contour>
      <point x="94" y="0" type="line"/>
      <point x="1196" y="0" type="line"/>
      <point x="1196" y="242" type="line"/>
      <point x="490" y="242" type="line"/>
      <point x="563" y="335" type="line"/>
      <point x="1235" y="1441" type="line"/>
      <point x="1197" y="1522" type="line"/>
      <point x="130" y="1522" type="line"/>
      <point x="130" y="1291" type="line"/>
      <point x="798" y="1291" type="line"/>
      <point x="740" y="1210" type="line"/>
      <point x="54" y="84" type="line"/>
    </contour>
    <contour>
      <point x="638" y="-170" type="move" name="btm"/>
    </contour>
    <contour>
      <point x="676" y="1700" type="move" name="top"/>
    </contour>
  </outline>
</glyph>
<glyph name="grave" format="1">
  <advance width="666"/>
  <unicode hex="0060"/>
  <outline>
    <contour>
      <point x="611" y="1389" type="line"/>
      <point x="494" y="1497"/>
      <point x="353" y="1666"/>
      <point x="270" y="1808" type="curve"/>
      <point x="55" y="1634" type="line"/>
      <point x="123" y="1489"/>
      <point x="378" y="1290"/>
      <point x="462" y="1252" type="curve"/>
    </contour>
    <contour>
      <point x="490" y="1701" type="move" name="_top"/>
    </contour>
  </outline>
</glyph>
<glyph name="b" format="1">
  <advance width="1340"/>
  <unicode hex="0062"/>
  <outline>
    <contour>
      <point x="480" y="175" type="line"/>
      <point x="480" y="989" type="line"/>
      <point x="470" y="995" type="line"/>
      <point x="480" y="1224" type="line"/>
      <point x="480" y="1661" type="line"/>
      <point x="168" y="1661" type="line"/>
      <point x="168" y="64" type="line"/>
    </contour>
    <contour>
      <point x="168" y="64" type="line"/>
      <point x="202" y="39"/>
      <point x="441" y="-23"/>
      <point x="649" y="-23" type="curve" smooth="yes"/>
      <point x="1003" y="-23"/>
      <point x="1245" y="233"/>
      <point x="1245" y="612" type="curve" smooth="yes"/>
      <point x="1245" y="982"/>
      <point x="1033" y="1156"/>
      <point x="791" y="1156" type="curve" smooth="yes"/>
      <point x="586" y="1156"/>
      <point x="489" y="1056"/>
      <point x="442" y="1006" type="curve"/>
      <point x="480" y="852" type="line"/>
      <point x="527" y="890"/>
      <point x="608" y="923"/>
      <point x="695" y="923" type="curve" smooth="yes"/>
      <point x="830" y="923"/>
      <point x="920" y="848"/>
      <point x="918" y="587" type="curve" smooth="yes"/>
      <point x="916" y="335"/>
      <point x="804" y="193"/>
      <point x="656" y="193" type="curve" smooth="yes"/>
      <point x="567" y="193"/>
      <point x="506" y="204"/>
      <point x="480" y="232" type="curve"/>
    </contour>
    <contour>
      <point x="741" y="-170" type="move" name="btm"/>
    </contour>
    <contour>
      <point x="838" y="1701" type="move" name="top"/>
    </contour>
  </outline>
</glyph>
<glyph name="c" format="1">
  <advance width="1048"/>
  <unicode hex="0063"/>
  <outline>
    <contour>
      <point x="95" y="556" type="curve" smooth="yes"/>
      <point x="95" y="230"/>
      <point x="272" y="-16"/>
      <point x="627" y="-16" type="curve" smooth="yes"/>
      <point x="771" y="-16"/>
      <point x="907" y="29"/>
      <point x="977" y="97" type="curve"/>
      <point x="932" y="282" type="line"/>
      <point x="886" y="257"/>
      <point x="788" y="235"/>
      <point x="684" y="235" type="curve" smooth="yes"/>
      <point x="522" y="235"/>
      <point x="398" y="349"/>
      <point x="405" y="595" type="curve" smooth="yes"/>
      <point x="411" y="824"/>
      <point x="565" y="901"/>
      <point x="696" y="901" type="curve" smooth="yes"/>
      <point x="802" y="901"/>
      <point x="866" y="886"/>
      <point x="921" y="857" type="curve"/>
      <point x="960" y="1098" type="line"/>
      <point x="922" y="1126"/>
      <point x="807" y="1156"/>
      <point x="664" y="1156" type="curve" smooth="yes"/>
      <point x="277" y="1156"/>
      <point x="95" y="892"/>
    </contour>
    <contour>
      <point x="599" y="-170" type="move" name="btm"/>
    </contour>
    <contour>
      <point x="637" y="1701" type="move" name="top"/>
    </contour>
  </outline>
</glyph>
<glyph name="e" format="1">
  <advance width="1190"/>
  <unicode hex="0065"/>
  <outline>
    <contour>
      <point x="633" y="-16" type="curve" smooth="yes"/>
      <point x="810" y="-16"/>
      <point x="981" y="37"/>
      <point x="1056" y="98" type="curve"/>
      <point x="1005" y="275" type="line"/>
      <point x="945" y="242"/>
      <point x="793" y="216"/>
      <point x="712" y="216" type="curve" smooth="yes"/>
      <point x="531" y="216"/>
      <point x="413" y="307"/>
      <point x="407" y="514" type="curve" smooth="yes"/>
      <point x="401" y="840"/>
      <point x="490" y="934"/>
      <point x="630" y="934" type="curve" smooth="yes"/>
      <point x="770" y="934"/>
      <point x="813" y="835"/>
      <point x="803" y="668" type="curve"/>
      <point x="282" y="668" type="line"/>
      <point x="262" y="495" type="line"/>
      <point x="1082" y="495" type="line"/>
      <point x="1090" y="546"/>
      <point x="1093" y="623"/>
      <point x="1093" y="709" type="curve" smooth="yes"/>
      <point x="1089" y="1041"/>
      <point x="876" y="1158"/>
      <point x="640" y="1156" type="curve" smooth="yes"/>
      <point x="290" y="1154"/>
      <point x="95" y="906"/>
      <point x="95" y="574" type="curve" smooth="yes"/>
      <point x="95" y="204"/>
      <point x="285" y="-16"/>
    </contour>
    <contour>
      <point x="635" y="-170" type="move" name="btm"/>
    </contour>
    <contour>
      <point x="634" y="1701" type="move" name="top"/>
    </contour>
  </outline>
</glyph>
<glyph name="f" format="1">
  <advance width="858"/>
  <unicode hex="0066"/>
  <outline>
    <contour>
      <point x="237" y="0" type="line"/>
      <point x="549" y="0" type="line"/>
      <point x="549" y="924" type="line"/>
      <point x="815" y="924" type="line"/>
      <point x="815" y="1140" type="line"/>
      <point x="549" y="1140" type="line"/>
      <point x="549" y="1256" type="line" smooth="yes"/>
      <point x="549" y="1394"/>
      <point x="614" y="1463"/>
      <point x="709" y="1463" type="curve" smooth="yes"/>
      <point x="787" y="1463"/>
      <point x="834" y="1454"/>
      <point x="865" y="1439" type="curve"/>
      <point x="865" y="1661" type="line"/>
      <point x="840" y="1669"/>
      <point x="749" y="1683"/>
      <point x="663" y="1683" type="curve" smooth="yes"/>
      <point x="466" y="1683"/>
      <point x="237" y="1583"/>
      <point x="237" y="1249" type="curve" smooth="yes"/>
      <point x="237" y="1140" type="line"/>
      <point x="82" y="1106" type="line"/>
      <point x="82" y="924" type="line"/>
      <point x="237" y="924" type="line"/>
    </contour>
    <contour>
      <point x="415" y="-170" type="move" name="btm"/>
    </contour>
    <contour>
      <point x="323" y="2035" type="move" name="top"/>
    </contour>
  </outline>
</glyph>
<glyph name="g" format="1">
  <advance width="1305"/>
  <unicode hex="0067"/>
  <outline>
    <contour>
      <point x="612" y="409" type="curve" smooth="yes"/>
      <point x="932" y="409"/>
      <point x="1119" y="538"/>
      <point x="1119" y="784" type="curve" smooth="yes"/>
      <point x="1119" y="1049"/>
      <point x="917" y="1160"/>
      <point x="616" y="1156" type="curve" smooth="yes"/>
      <point x="317" y="1152"/>
      <point x="122" y="1041"/>
      <point x="122" y="775" type="curve" smooth="yes"/>
      <point x="122" y="565"/>
      <point x="327" y="409"/>
    </contour>
    <contour>
      <point x="1288" y="914" type="line"/>
      <point x="1288" y="1140" type="line"/>
      <point x="1161" y="1140" type="line" smooth="yes"/>
      <point x="1045" y="1140"/>
      <point x="973" y="1075"/>
      <point x="948" y="1043" type="curve"/>
      <point x="978" y="914" type="line"/>
    </contour>
    <contour>
      <point x="617" y="600" type="curve" smooth="yes"/>
      <point x="490" y="600"/>
      <point x="423" y="669"/>
      <point x="423" y="779" type="curve" smooth="yes"/>
      <point x="423" y="924"/>
      <point x="515" y="963"/>
      <point x="631" y="963" type="curve" smooth="yes"/>
      <point x="759" y="963"/>
      <point x="824" y="898"/>
      <point x="824" y="775" type="curve" smooth="yes"/>
      <point x="824" y="632"/>
      <point x="732" y="600"/>
    </contour>
    <contour>
      <point x="633" y="-516" type="curve" smooth="yes"/>
      <point x="943" y="-520"/>
      <point x="1234" y="-372"/>
      <point x="1234" y="-102" type="curve" smooth="yes"/>
      <point x="1234" y="61"/>
      <point x="1167" y="243"/>
      <point x="795" y="243" type="curve" smooth="yes"/>
      <point x="605" y="243" type="line" smooth="yes"/>
      <point x="510" y="243"/>
      <point x="470" y="257"/>
      <point x="470" y="323" type="curve" smooth="yes"/>
      <point x="470" y="369"/>
      <point x="495" y="417"/>
      <point x="547" y="434" type="curve"/>
      <point x="368" y="463" type="line"/>
      <point x="217" y="406"/>
      <point x="175" y="307"/>
      <point x="174" y="228" type="curve" smooth="yes"/>
      <point x="173" y="152"/>
      <point x="207" y="66"/>
      <point x="305" y="40" type="curve" smooth="yes"/>
      <point x="329" y="34"/>
      <point x="343" y="19"/>
      <point x="366" y="13" type="curve" smooth="yes"/>
      <point x="404" y="5"/>
      <point x="452" y="0"/>
      <point x="505" y="0" type="curve" smooth="yes"/>
      <point x="668" y="0" type="line" smooth="yes"/>
      <point x="896" y="0"/>
      <point x="926" y="-58"/>
      <point x="926" y="-164" type="curve" smooth="yes"/>
      <point x="926" y="-284"/>
      <point x="813" y="-332"/>
      <point x="645" y="-332" type="curve" smooth="yes"/>
      <point x="462" y="-332"/>
      <point x="401" y="-225"/>
      <point x="401" y="-114" type="curve" smooth="yes"/>
      <point x="401" y="-4"/>
      <point x="461" y="12"/>
      <point x="496" y="43" type="curve"/>
      <point x="315" y="72" type="line"/>
      <point x="191" y="35"/>
      <point x="91" y="-57"/>
      <point x="91" y="-183" type="curve" smooth="yes"/>
      <point x="91" y="-398"/>
      <point x="289" y="-512"/>
    </contour>
    <contour>
      <point x="633" y="1701" type="move" name="top"/>
    </contour>
  </outline>
</glyph>
<glyph name="h" format="1">
  <advance width="1351"/>
  <unicode hex="0068"/>
  <outline>
    <contour>
      <point x="168" y="0" type="line"/>
      <point x="480" y="0" type="line"/>
      <point x="480" y="809" type="line"/>
      <point x="549" y="870"/>
      <point x="648" y="894"/>
      <point x="705" y="895" type="curve" smooth="yes"/>
      <point x="834" y="899"/>
      <point x="877" y="834"/>
      <point x="877" y="648" type="curve" smooth="yes"/>
      <point x="877" y="0" type="line"/>
      <point x="1189" y="0" type="line"/>
      <point x="1189" y="710" type="line" smooth="yes"/>
      <point x="1189" y="1042"/>
      <point x="1063" y="1167"/>
      <point x="811" y="1159" type="curve" smooth="yes"/>
      <point x="680" y="1155"/>
      <point x="528" y="1080"/>
      <point x="452" y="1012" type="curve"/>
      <point x="460" y="984" type="line"/>
      <point x="480" y="1224" type="line"/>
      <point x="480" y="1662" type="line"/>
      <point x="168" y="1662" type="line"/>
    </contour>
    <contour>
      <point x="654" y="-170" type="move" name="btm"/>
    </contour>
    <contour>
      <point x="789" y="1701" type="move" name="top"/>
    </contour>
  </outline>
</glyph>
<glyph name="k" format="1">
  <advance width="1238"/>
  <unicode hex="006B"/>
  <outline>
    <contour>
      <point x="1208" y="1140" type="line"/>
      <point x="855" y="1140" type="line"/>
      <point x="420" y="632" type="line"/>
      <point x="466" y="593" type="line"/>
      <point x="480" y="977" type="line"/>
      <point x="480" y="1661" type="line"/>
      <point x="168" y="1661" type="line"/>
      <point x="168" y="677" type="line"/>
      <point x="168" y="0" type="line"/>
      <point x="480" y="0" type="line"/>
      <point x="480" y="213" type="line"/>
      <point x="474" y="394" type="line"/>
      <point x="463" y="328" type="line"/>
    </contour>
    <contour>
      <point x="572" y="516" type="line"/>
      <point x="893" y="0" type="line"/>
      <point x="1248" y="0" type="line"/>
      <point x="779" y="731" type="line"/>
    </contour>
    <contour>
      <point x="652" y="-170" type="move" name="btm"/>
    </contour>
    <contour>
      <point x="784" y="1700" type="move" name="top"/>
    </contour>
  </outline>
</glyph>
<glyph name="n" format="1">
  <advance width="1352"/>
  <unicode hex="006E"/>
  <outline>
    <contour>
      <point x="174" y="0" type="line"/>
      <point x="486" y="0" type="line"/>
      <point x="486" y="809" type="line"/>
      <point x="555" y="870"/>
      <point x="652" y="895"/>
      <point x="710" y="896" type="curve" smooth="yes"/>
      <point x="841" y="900"/>
      <point x="878" y="836"/>
      <point x="878" y="648" type="curve" smooth="yes"/>
      <point x="878" y="0" type="line"/>
      <point x="1190" y="0" type="line"/>
      <point x="1190" y="715" type="line" smooth="yes"/>
      <point x="1190" y="1049"/>
      <point x="1075" y="1167"/>
      <point x="834" y="1159" type="curve" smooth="yes"/>
      <point x="694" y="1155"/>
      <point x="540" y="1076"/>
      <point x="463" y="1018" type="curve"/>
      <point x="457" y="1140" type="line"/>
      <point x="174" y="1140" type="line"/>
    </contour>
    <contour>
      <point x="677" y="-170" type="move" name="btm"/>
    </contour>
    <contour>
      <point x="761" y="1700" type="move" name="top"/>
    </contour>
  </outline>
</glyph>
<glyph name="q" format="1">
  <advance width="1340"/>
  <unicode hex="0071"/>
  <outline>
    <contour>
      <point x="860" y="-139" type="line"/>
      <point x="860" y="-506" type="line"/>
      <point x="1172" y="-506" type="line"/>
      <point x="1172" y="1140" type="line"/>
      <point x="902" y="1099" type="line"/>
      <point x="883" y="1002" type="line"/>
      <point x="860" y="976" type="line"/>
      <point x="860" y="201" type="line"/>
      <point x="866" y="109" type="line"/>
    </contour>
    <contour>
      <point x="549" y="-16" type="curve" smooth="yes"/>
      <point x="754" y="-16"/>
      <point x="851" y="84"/>
      <point x="898" y="134" type="curve"/>
      <point x="860" y="288" type="line"/>
      <point x="813" y="255"/>
      <point x="732" y="227"/>
      <point x="645" y="227" type="curve" smooth="yes"/>
      <point x="510" y="227"/>
      <point x="420" y="305"/>
      <point x="422" y="559" type="curve" smooth="yes"/>
      <point x="424" y="812"/>
      <point x="536" y="934"/>
      <point x="684" y="934" type="curve" smooth="yes"/>
      <point x="753" y="934"/>
      <point x="819" y="930"/>
      <point x="860" y="901" type="curve"/>
      <point x="982" y="1087" type="line"/>
      <point x="957" y="1110"/>
      <point x="813" y="1156"/>
      <point x="675" y="1156" type="curve" smooth="yes"/>
      <point x="328" y="1156"/>
      <point x="95" y="912"/>
      <point x="95" y="533" type="curve" smooth="yes"/>
      <point x="95" y="163"/>
      <point x="307" y="-16"/>
    </contour>
    <contour>
      <point x="602" y="-170" type="move" name="btm"/>
    </contour>
    <contour>
      <point x="593" y="1701" type="move" name="top"/>
    </contour>
  </outline>
</glyph>
<glyph name="r" format="1">
  <advance width="926"/>
  <unicode hex="0072"/>
  <outline>
    <contour>
      <point x="449" y="748" type="line"/>
      <point x="493" y="794"/>
      <point x="577" y="872"/>
      <point x="724" y="872" type="curve" smooth="yes"/>
      <point x="807" y="872"/>
      <point x="839" y="856"/>
      <point x="861" y="844" type="curve"/>
      <point x="861" y="1145" type="line"/>
      <point x="842" y="1156"/>
      <point x="811" y="1159"/>
      <point x="772" y="1159" type="curve" smooth="yes"/>
      <point x="618" y="1159"/>
      <point x="478" y="1055"/>
      <point x="440" y="965" type="curve"/>
    </contour>
    <contour>
      <point x="158" y="0" type="line"/>
      <point x="470" y="0" type="line"/>
      <point x="470" y="908" type="line"/>
      <point x="451" y="964" type="line"/>
      <point x="435" y="1140" type="line"/>
      <point x="158" y="1140" type="line"/>
    </contour>
    <contour>
      <point x="319" y="-170" type="move" name="btm"/>
    </contour>
    <contour>
      <point x="541" y="1701" type="move" name="top"/>
    </contour>
  </outline>
</glyph>
<glyph name="s" format="1">
  <advance width="1048"/>
  <unicode hex="0073"/>
  <outline>
    <contour>
      <point x="115" y="72" type="line"/>
      <point x="177" y="31"/>
      <point x="347" y="-16"/>
      <point x="513" y="-16" type="curve" smooth="yes"/>
      <point x="787" y="-16"/>
      <point x="960" y="99"/>
      <point x="960" y="334" type="curve" smooth="yes"/>
      <point x="960" y="501"/>
      <point x="872" y="598"/>
      <point x="640" y="677" type="curve" smooth="yes"/>
      <point x="473" y="734"/>
      <point x="416" y="767"/>
      <point x="417" y="838" type="curve" smooth="yes"/>
      <point x="418" y="902"/>
      <point x="475" y="928"/>
      <point x="610" y="928" type="curve" smooth="yes"/>
      <point x="706" y="928"/>
      <point x="822" y="891"/>
      <point x="866" y="851" type="curve"/>
      <point x="900" y="1091" type="line"/>
      <point x="859" y="1115"/>
      <point x="741" y="1156"/>
      <point x="579" y="1156" type="curve" smooth="yes"/>
      <point x="315" y="1156"/>
      <point x="120" y="1044"/>
      <point x="119" y="828" type="curve" smooth="yes"/>
      <point x="118" y="663"/>
      <point x="197" y="546"/>
      <point x="406" y="477" type="curve" smooth="yes"/>
      <point x="571" y="423"/>
      <point x="653" y="375"/>
      <point x="653" y="309" type="curve" smooth="yes"/>
      <point x="653" y="239"/>
      <point x="596" y="213"/>
      <point x="474" y="214" type="curve" smooth="yes"/>
      <point x="328" y="214"/>
      <point x="180" y="277"/>
      <point x="147" y="304" type="curve"/>
    </contour>
    <contour>
      <point x="518" y="-170" type="move" name="btm"/>
    </contour>
    <contour>
      <point x="538" y="1700" type="move" name="top"/>
    </contour>
  </outline>
</glyph>
<glyph name="t" format="1">
  <advance width="913"/>
  <unicode hex="0074"/>
  <outline>
    <contour>
      <point x="526" y="-16" type="curve" smooth="yes"/>
      <point x="682" y="-16"/>
      <point x="813" y="43"/>
      <point x="868" y="92" type="curve"/>
      <point x="830" y="267" type="line"/>
      <point x="794" y="241"/>
      <point x="707" y="219"/>
      <point x="653" y="219" type="curve" smooth="yes"/>
      <point x="557" y="219"/>
      <point x="523" y="235"/>
      <point x="523" y="466" type="curve" smooth="yes"/>
      <point x="523" y="924" type="line"/>
      <point x="832" y="924" type="line"/>
      <point x="832" y="1140" type="line"/>
      <point x="523" y="1140" type="line"/>
      <point x="523" y="1400" type="line"/>
      <point x="333" y="1400" type="line"/>
      <point x="306" y="1326"/>
      <point x="277" y="1247"/>
      <point x="258" y="1201" type="curve" smooth="yes"/>
      <point x="231" y="1136"/>
      <point x="174" y="1122"/>
      <point x="74" y="1093" type="curve"/>
      <point x="74" y="924" type="line"/>
      <point x="211" y="924" type="line"/>
      <point x="211" y="339" type="line" smooth="yes"/>
      <point x="211" y="83"/>
      <point x="299" y="-16"/>
    </contour>
    <contour>
      <point x="448" y="-170" type="move" name="btm"/>
    </contour>
    <contour>
      <point x="433" y="1870" type="move" name="top"/>
    </contour>
  </outline>
</glyph>
<glyph name="y" format="1">
  <advance width="1188"/>
  <unicode hex="0079"/>
  <outline>
    <contour>
      <point x="120" y="-488" type="line"/>
      <point x="132" y="-496"/>
      <point x="242" y="-507"/>
      <point x="272" y="-507" type="curve" smooth="yes"/>
      <point x="303" y="-507"/>
      <point x="387" y="-497"/>
      <point x="424" y="-486" type="curve" smooth="yes"/>
      <point x="576" y="-441"/>
      <point x="723" y="-306"/>
      <point x="807" y="-30" type="curve" smooth="yes"/>
      <point x="1162" y="1140" type="line"/>
      <point x="827" y="1140" type="line"/>
      <point x="688" y="531" type="line"/>
      <point x="597" y="140" type="line"/>
      <point x="627" y="140" type="line"/>
      <point x="528" y="531" type="line"/>
      <point x="355" y="1140" type="line"/>
      <point x="17" y="1140" type="line"/>
      <point x="404" y="0" type="line"/>
      <point x="559" y="0" type="line"/>
      <point x="545" y="28" type="line"/>
      <point x="483" y="-255"/>
      <point x="336" y="-255"/>
      <point x="233" y="-255" type="curve" smooth="yes"/>
      <point x="210" y="-255"/>
      <point x="142" y="-242"/>
      <point x="120" y="-235" type="curve"/>
    </contour>
    <contour>
      <point x="594" y="-170" type="move" name="btm"/>
    </contour>
    <contour>
      <point x="612" y="1700" type="move" name="top"/>
    </contour>
  </outline>
</glyph>
<glyph name="z" format="1">
  <advance width="1108"/>
  <unicode hex="007A"/>
  <outline>
    <contour>
      <point x="118" y="0" type="line"/>
      <point x="1029" y="0" type="line"/>
      <point x="1029" y="216" type="line"/>
      <point x="500" y="216" type="line"/>
      <point x="561" y="300" type="line"/>
      <point x="1045" y="1045" type="line"/>
      <point x="1010" y="1140" type="line"/>
      <point x="144" y="1140" type="line"/>
      <point x="142" y="923" type="line"/>
      <point x="630" y="923" type="line"/>
      <point x="572" y="840" type="line"/>
      <point x="76" y="83" type="line"/>
    </contour>
    <contour>
      <point x="555" y="-170" type="move" name="btm"/>
    </contour>
    <contour>
      <point x="571" y="1700" type="move" name="top"/>
    </contour>
  </outline>
</glyph>
<glyph name="bar" format="1">
  <advance width="865"/>
  <unicode hex="007C"/>
  <outline>
    <contour>
      <point x="305" y="-187" type="line"/>
      <point x="560" y="-187" type="line"/>
      <point x="560" y="1780" type="line"/>
      <point x="305" y="1780" type="line"/>
    </contour>
  </outline>
</glyph>
<glyph name="cent" format="1">
  <advance width="1187"/>
  <unicode hex="00A2"/>
  <outline>
    <contour>
      <point x="595" y="1068" type="line"/>
      <point x="767" y="1068" type="line"/>
      <point x="774" y="1377" type="line"/>
      <point x="603" y="1377" type="line"/>
    </contour>
    <contour>
      <point x="564" y="-216" type="line"/>
      <point x="736" y="-216" type="line"/>
      <point x="741" y="93" type="line"/>
      <point x="570" y="93" type="line"/>
    </contour>
    <component base="c" xOffset="49"/>
  </outline>
</glyph>
<glyph name="sterling" format="1">
  <advance width="1576"/>
  <unicode hex="00A3"/>
  <outline>
    <contour>
      <point x="114" y="116" type="curve" smooth="yes"/>
      <point x="114" y="26"/>
      <point x="194" y="-8"/>
      <point x="256" y="-8" type="curve" smooth="yes"/>
      <point x="336" y="-8"/>
      <point x="422" y="44"/>
      <point x="463" y="90" type="curve"/>
      <point x="585" y="93"/>
      <point x="702" y="-18"/>
      <point x="994" y="-18" type="curve" smooth="yes"/>
      <point x="1302" y="-18"/>
      <point x="1453" y="124"/>
      <point x="1453" y="348" type="curve" smooth="yes"/>
      <point x="1453" y="517"/>
      <point x="1361" y="578"/>
      <point x="1312" y="606" type="curve"/>
      <point x="1101" y="496" type="line"/>
      <point x="1133" y="474"/>
      <point x="1164" y="418"/>
      <point x="1164" y="348" type="curve" smooth="yes"/>
      <point x="1164" y="255"/>
      <point x="1098" y="192"/>
      <point x="938" y="192" type="curve" smooth="yes"/>
      <point x="800" y="192"/>
      <point x="731" y="224"/>
      <point x="626" y="245" type="curve"/>
      <point x="690" y="302"/>
      <point x="736" y="381"/>
      <point x="736" y="554" type="curve" smooth="yes"/>
      <point x="736" y="963" type="line" smooth="yes"/>
      <point x="736" y="1276"/>
      <point x="858" y="1294"/>
      <point x="963" y="1294" type="curve" smooth="yes"/>
      <point x="1056" y="1294"/>
      <point x="1131" y="1246"/>
      <point x="1175" y="1212" type="curve"/>
      <point x="1301" y="1441" type="line"/>
      <point x="1224" y="1491"/>
      <point x="1099" y="1538"/>
      <point x="934" y="1538" type="curve" smooth="yes"/>
      <point x="586" y="1538"/>
      <point x="416" y="1322"/>
      <point x="416" y="1025" type="curve" smooth="yes"/>
      <point x="416" y="535" type="line" smooth="yes"/>
      <point x="416" y="472"/>
      <point x="409" y="336"/>
      <point x="381" y="296" type="curve"/>
      <point x="233" y="292"/>
      <point x="114" y="225"/>
    </contour>
    <contour>
      <point x="240" y="717" type="line"/>
      <point x="1046" y="717" type="line"/>
      <point x="1046" y="898" type="line"/>
      <point x="240" y="898" type="line"/>
    </contour>
  </outline>
</glyph>
<glyph name="dieresis" format="1">
  <advance width="974"/>
  <unicode hex="00A8"/>
  <outline>
    <contour>
      <point x="236" y="1310" type="curve" smooth="yes"/>
      <point x="340" y="1310"/>
      <point x="419" y="1393"/>
      <point x="419" y="1495" type="curve" smooth="yes"/>
      <point x="419" y="1591"/>
      <point x="365" y="1663"/>
      <point x="255" y="1663" type="curve" smooth="yes"/>
      <point x="153" y="1663"/>
      <point x="70" y="1578"/>
      <point x="70" y="1478" type="curve" smooth="yes"/>
      <point x="70" y="1380"/>
      <point x="135" y="1310"/>
    </contour>
    <contour>
      <point x="721" y="1310" type="curve" smooth="yes"/>
      <point x="825" y="1310"/>
      <point x="904" y="1393"/>
      <point x="904" y="1495" type="curve" smooth="yes"/>
      <point x="904" y="1591"/>
      <point x="850" y="1663"/>
      <point x="740" y="1663" type="curve" smooth="yes"/>
      <point x="638" y="1663"/>
      <point x="555" y="1578"/>
      <point x="555" y="1478" type="curve" smooth="yes"/>
      <point x="555" y="1380"/>
      <point x="620" y="1310"/>
    </contour>
    <contour>
      <point x="487" y="1701" type="move" name="_top"/>
    </contour>
  </outline>
</glyph>
<glyph name="copyright" format="1">
  <advance width="2093"/>
  <unicode hex="00A9"/>
  <outline>
    <contour>
      <point x="176" y="963" type="curve" smooth="yes"/>
      <point x="176" y="476"/>
      <point x="560" y="82"/>
      <point x="1046" y="82" type="curve" smooth="yes"/>
      <point x="1532" y="82"/>
      <point x="1917" y="476"/>
      <point x="1917" y="963" type="curve" smooth="yes"/>
      <point x="1917" y="1449"/>
      <point x="1532" y="1840"/>
      <point x="1046" y="1840" type="curve" smooth="yes"/>
      <point x="560" y="1840"/>
      <point x="176" y="1449"/>
    </contour>
    <contour>
      <point x="318" y="963" type="curve" smooth="yes"/>
      <point x="318" y="1376"/>
      <point x="627" y="1714"/>
      <point x="1046" y="1714" type="curve" smooth="yes"/>
      <point x="1465" y="1714"/>
      <point x="1774" y="1376"/>
      <point x="1774" y="963" type="curve" smooth="yes"/>
      <point x="1774" y="549"/>
      <point x="1465" y="211"/>
      <point x="1046" y="211" type="curve" smooth="yes"/>
      <point x="627" y="211"/>
      <point x="318" y="549"/>
    </contour>
    <contour>
      <point x="604" y="950" type="curve" smooth="yes"/>
      <point x="605" y="691"/>
      <point x="777" y="475"/>
      <point x="1049" y="475" type="curve" smooth="yes"/>
      <point x="1182" y="475"/>
      <point x="1312" y="526"/>
      <point x="1377" y="579" type="curve"/>
      <point x="1329" y="738" type="line"/>
      <point x="1282" y="710"/>
      <point x="1203" y="674"/>
      <point x="1104" y="674" type="curve" smooth="yes"/>
      <point x="948" y="674"/>
      <point x="837" y="763"/>
      <point x="838" y="994" type="curve" smooth="yes"/>
      <point x="839" y="1157"/>
      <point x="945" y="1254"/>
      <point x="1092" y="1254" type="curve" smooth="yes"/>
      <point x="1173" y="1254"/>
      <point x="1262" y="1227"/>
      <point x="1304" y="1196" type="curve"/>
      <point x="1349" y="1402" type="line"/>
      <point x="1308" y="1425"/>
      <point x="1212" y="1449"/>
      <point x="1099" y="1449" type="curve" smooth="yes"/>
      <point x="777" y="1449"/>
      <point x="602" y="1234"/>
    </contour>
  </outline>
</glyph>
<glyph name="logicalnot" format="1">
  <advance width="1480"/>
  <unicode hex="00AC"/>
  <outline>
    <contour>
      <point x="245" y="639" type="line"/>
      <point x="991" y="639" type="line"/>
      <point x="991" y="323" type="line"/>
      <point x="1235" y="323" type="line"/>
      <point x="1235" y="852" type="line"/>
      <point x="245" y="852" type="line"/>
    </contour>
  </outline>
</glyph>
<glyph name="registered" format="1">
  <advance width="2093"/>
  <unicode hex="00AE"/>
  <outline>
    <contour>
      <point x="172" y="962" type="curve" smooth="yes"/>
      <point x="172" y="475"/>
      <point x="560" y="81"/>
      <point x="1046" y="81" type="curve" smooth="yes"/>
      <point x="1532" y="81"/>
      <point x="1921" y="475"/>
      <point x="1921" y="962" type="curve" smooth="yes"/>
      <point x="1921" y="1448"/>
      <point x="1532" y="1840"/>
      <point x="1046" y="1840" type="curve" smooth="yes"/>
      <point x="560" y="1840"/>
      <point x="172" y="1448"/>
    </contour>
    <contour>
      <point x="314" y="962" type="curve" smooth="yes"/>
      <point x="314" y="1375"/>
      <point x="631" y="1712"/>
      <point x="1046" y="1712" type="curve" smooth="yes"/>
      <point x="1461" y="1712"/>
      <point x="1778" y="1375"/>
      <point x="1778" y="962" type="curve" smooth="yes"/>
      <point x="1778" y="548"/>
      <point x="1461" y="211"/>
      <point x="1046" y="211" type="curve" smooth="yes"/>
      <point x="631" y="211"/>
      <point x="314" y="548"/>
    </contour>
    <contour>
      <point x="709" y="481" type="line"/>
      <point x="921" y="481" type="line"/>
      <point x="921" y="831" type="line"/>
      <point x="944" y="831"/>
      <point x="997" y="831"/>
      <point x="1010" y="832" type="curve"/>
      <point x="1113" y="794"/>
      <point x="1144" y="649"/>
      <point x="1185" y="568" type="curve" smooth="yes"/>
      <point x="1204" y="532"/>
      <point x="1215" y="504"/>
      <point x="1236" y="482" type="curve"/>
      <point x="1482" y="482" type="line"/>
      <point x="1446" y="527"/>
      <point x="1434" y="551"/>
      <point x="1416" y="581" type="curve" smooth="yes"/>
      <point x="1361" y="677"/>
      <point x="1322" y="807"/>
      <point x="1224" y="857" type="curve"/>
      <point x="1370" y="902"/>
      <point x="1414" y="1030"/>
      <point x="1414" y="1174" type="curve" smooth="yes"/>
      <point x="1414" y="1333"/>
      <point x="1299" y="1449"/>
      <point x="1059" y="1449" type="curve" smooth="yes"/>
      <point x="927" y="1449"/>
      <point x="873" y="1443"/>
      <point x="798" y="1444" type="curve" smooth="yes"/>
      <point x="709" y="1444" type="line"/>
    </contour>
    <contour>
      <point x="921" y="987" type="curve"/>
      <point x="921" y="1278" type="line"/>
      <point x="957" y="1290"/>
      <point x="983" y="1289"/>
      <point x="1020" y="1289" type="curve" smooth="yes"/>
      <point x="1151" y="1291"/>
      <point x="1195" y="1238"/>
      <point x="1195" y="1145" type="curve" smooth="yes"/>
      <point x="1195" y="1037"/>
      <point x="1142" y="980"/>
      <point x="1039" y="980" type="curve" smooth="yes"/>
      <point x="1002" y="980"/>
      <point x="950" y="981"/>
    </contour>
  </outline>
</glyph>
<glyph name="macron" format="1">
  <advance width="701"/>
  <unicode hex="00AF"/>
  <outline>
    <contour>
      <point x="55" y="1420" type="line"/>
      <point x="646" y="1420" type="line"/>
      <point x="646" y="1626" type="line"/>
      <point x="55" y="1626" type="line"/>
    </contour>
    <contour>
      <point x="350" y="1701" type="move" name="_top"/>
    </contour>
  </outline>
</glyph>
<glyph name="acute" format="1">
  <advance width="665"/>
  <unicode hex="00B4"/>
  <outline>
    <contour>
      <point x="204" y="1252" type="line"/>
      <point x="284" y="1287"/>
      <point x="551" y="1497"/>
      <point x="610" y="1634" type="curve"/>
      <point x="396" y="1808" type="line"/>
      <point x="294" y="1642"/>
      <point x="168" y="1495"/>
      <point x="55" y="1389" type="curve"/>
    </contour>
    <contour>
      <point x="188" y="1701" type="move" name="_top"/>
    </contour>
  </outline>
</glyph>
<glyph name="mu" format="1">
  <advance width="1404"/>
  <unicode hex="00B5"/>
  <outline>
    <contour>
      <point x="181" y="-371" type="line"/>
      <point x="463" y="-371" type="line"/>
      <point x="426" y="161" type="line"/>
      <point x="367" y="151" type="line"/>
      <point x="420" y="22"/>
      <point x="520" y="-16"/>
      <point x="668" y="-16" type="curve" smooth="yes"/>
      <point x="813" y="-16"/>
      <point x="893" y="63"/>
      <point x="932" y="120" type="curve"/>
      <point x="936" y="22"/>
      <point x="993" y="-18"/>
      <point x="1083" y="-18" type="curve" smooth="yes"/>
      <point x="1225" y="-18"/>
      <point x="1323" y="66"/>
      <point x="1337" y="87" type="curve"/>
      <point x="1306" y="232" type="line"/>
      <point x="1269" y="210"/>
      <point x="1237" y="205"/>
      <point x="1224" y="205" type="curve" smooth="yes"/>
      <point x="1202" y="205"/>
      <point x="1181" y="219"/>
      <point x="1181" y="281" type="curve" smooth="yes"/>
      <point x="1181" y="1140" type="line"/>
      <point x="869" y="1140" type="line"/>
      <point x="869" y="300" type="line"/>
      <point x="825" y="262"/>
      <point x="756" y="232"/>
      <point x="697" y="232" type="curve" smooth="yes"/>
      <point x="548" y="232"/>
      <point x="493" y="302"/>
      <point x="493" y="484" type="curve" smooth="yes"/>
      <point x="493" y="1140" type="line"/>
      <point x="181" y="1140" type="line"/>
    </contour>
  </outline>
</glyph>
<glyph name="paragraph" format="1">
  <advance width="1410"/>
  <unicode hex="00B6"/>
  <outline>
    <contour>
      <point x="496" y="0" type="line"/>
      <point x="748" y="0" type="line"/>
      <point x="748" y="1522" type="line"/>
      <point x="950" y="1522" type="line"/>
      <point x="950" y="0" type="line"/>
      <point x="1202" y="0" type="line"/>
      <point x="1202" y="1691" type="line"/>
      <point x="1073" y="1694"/>
      <point x="764" y="1711"/>
      <point x="658" y="1711" type="curve" smooth="yes"/>
      <point x="259" y="1711"/>
      <point x="62" y="1547"/>
      <point x="62" y="1248" type="curve" smooth="yes"/>
      <point x="62" y="915"/>
      <point x="222" y="777"/>
      <point x="496" y="777" type="curve"/>
    </contour>
  </outline>
</glyph>
<glyph name="ordmasculine" format="1">
  <advance width="1065"/>
  <unicode hex="00BA"/>
  <outline>
    <contour>
      <point x="83" y="1156" type="curve" smooth="yes"/>
      <point x="80" y="862"/>
      <point x="235" y="669"/>
      <point x="529" y="669" type="curve" smooth="yes"/>
      <point x="760" y="669"/>
      <point x="977" y="800"/>
      <point x="982" y="1136" type="curve" smooth="yes"/>
      <point x="986" y="1420"/>
      <point x="839" y="1618"/>
      <point x="552" y="1618" type="curve" smooth="yes"/>
      <point x="327" y="1618"/>
      <point x="88" y="1492"/>
    </contour>
    <contour>
      <point x="350" y="1156" type="curve" smooth="yes"/>
      <point x="350" y="1352"/>
      <point x="421" y="1425"/>
      <point x="541" y="1427" type="curve" smooth="yes"/>
      <point x="661" y="1429"/>
      <point x="715" y="1316"/>
      <point x="715" y="1134" type="curve" smooth="yes"/>
      <point x="715" y="940"/>
      <point x="661" y="862"/>
      <point x="541" y="860" type="curve" smooth="yes"/>
      <point x="412" y="858"/>
      <point x="350" y="976"/>
    </contour>
  </outline>
</glyph>
<glyph name="Oslash" format="1">
  <advance width="1595"/>
  <unicode hex="00D8"/>
  <outline>
    <contour>
      <point x="501" y="-220" type="line"/>
      <point x="1218" y="1749" type="line"/>
      <point x="1093" y="1781" type="line"/>
      <point x="376" y="-188" type="line"/>
    </contour>
    <component base="O"/>
  </outline>
</glyph>
<glyph name="ae" format="1">
  <advance width="1851"/>
  <unicode hex="00E6"/>
  <outline>
    <contour>
      <point x="1294" y="-16" type="curve" smooth="yes"/>
      <point x="1471" y="-16"/>
      <point x="1642" y="37"/>
      <point x="1717" y="98" type="curve"/>
      <point x="1666" y="275" type="line"/>
      <point x="1606" y="242"/>
      <point x="1454" y="216"/>
      <point x="1373" y="216" type="curve" smooth="yes"/>
      <point x="1192" y="216"/>
      <point x="1074" y="307"/>
      <point x="1068" y="514" type="curve"/>
      <point x="1062" y="840"/>
      <point x="1151" y="934"/>
      <point x="1291" y="934" type="curve" smooth="yes"/>
      <point x="1431" y="934"/>
      <point x="1474" y="835"/>
      <point x="1464" y="668" type="curve"/>
      <point x="943" y="668" type="line"/>
      <point x="923" y="495" type="line"/>
      <point x="1743" y="495" type="line"/>
      <point x="1751" y="546"/>
      <point x="1754" y="623"/>
      <point x="1754" y="709" type="curve"/>
      <point x="1750" y="1041"/>
      <point x="1537" y="1158"/>
      <point x="1301" y="1156" type="curve" smooth="yes"/>
      <point x="951" y="1154"/>
      <point x="756" y="906"/>
      <point x="756" y="574" type="curve" smooth="yes"/>
      <point x="756" y="204"/>
      <point x="946" y="-16"/>
    </contour>
    <contour>
      <point x="102" y="330" type="curve" smooth="yes"/>
      <point x="102" y="101"/>
      <point x="271" y="-16"/>
      <point x="475" y="-16" type="curve" smooth="yes"/>
      <point x="628" y="-16"/>
      <point x="777" y="31"/>
      <point x="896" y="180" type="curve"/>
      <point x="875" y="255" type="line"/>
      <point x="808" y="308" type="line"/>
      <point x="774" y="256"/>
      <point x="675" y="195"/>
      <point x="581" y="195" type="curve" smooth="yes"/>
      <point x="492" y="195"/>
      <point x="422" y="243"/>
      <point x="422" y="347" type="curve" smooth="yes"/>
      <point x="422" y="444"/>
      <point x="480" y="469"/>
      <point x="528" y="489" type="curve" smooth="yes"/>
      <point x="578" y="511"/>
      <point x="662" y="531"/>
      <point x="760" y="530" type="curve"/>
      <point x="803" y="638" type="line"/>
      <point x="751" y="706" type="line"/>
      <point x="619" y="706"/>
      <point x="432" y="689"/>
      <point x="315" y="637" type="curve" smooth="yes"/>
      <point x="187" y="580"/>
      <point x="102" y="473"/>
    </contour>
    <contour>
      <point x="228" y="843" type="line"/>
      <point x="282" y="875"/>
      <point x="438" y="924"/>
      <point x="554" y="924" type="curve" smooth="yes"/>
      <point x="698" y="924"/>
      <point x="751" y="884"/>
      <point x="751" y="767" type="curve" smooth="yes"/>
      <point x="751" y="595" type="line"/>
      <point x="1031" y="596" type="line"/>
      <point x="1031" y="745" type="line" smooth="yes"/>
      <point x="1031" y="1076"/>
      <point x="906" y="1162"/>
      <point x="627" y="1162" type="curve" smooth="yes"/>
      <point x="396" y="1162"/>
      <point x="203" y="1068"/>
      <point x="159" y="1043" type="curve"/>
    </contour>
    <contour>
      <point x="940" y="1700" type="move" name="top"/>
    </contour>
  </outline>
</glyph>
<glyph name="idieresis" format="1">
  <advance width="660"/>
  <unicode hex="00EF"/>
  <outline>
    <contour>
      <point x="91" y="1309" type="curve" smooth="yes"/>
      <point x="195" y="1309"/>
      <point x="274" y="1392"/>
      <point x="274" y="1494" type="curve" smooth="yes"/>
      <point x="274" y="1590"/>
      <point x="220" y="1662"/>
      <point x="110" y="1662" type="curve" smooth="yes"/>
      <point x="8" y="1662"/>
      <point x="-75" y="1577"/>
      <point x="-75" y="1477" type="curve" smooth="yes"/>
      <point x="-75" y="1379"/>
      <point x="-10" y="1309"/>
    </contour>
    <contour>
      <point x="552" y="1309" type="curve" smooth="yes"/>
      <point x="656" y="1309"/>
      <point x="735" y="1392"/>
      <point x="735" y="1494" type="curve" smooth="yes"/>
      <point x="735" y="1590"/>
      <point x="681" y="1662"/>
      <point x="571" y="1662" type="curve" smooth="yes"/>
      <point x="469" y="1662"/>
      <point x="386" y="1577"/>
      <point x="386" y="1477" type="curve" smooth="yes"/>
      <point x="386" y="1379"/>
      <point x="451" y="1309"/>
    </contour>
    <component base="dotlessi"/>
  </outline>
</glyph>
<glyph name="Aogonek" format="1">
  <advance width="1421"/>
  <unicode hex="0104"/>
  <outline>
    <contour>
      <point x="942" y="-316" type="curve"/>
      <point x="948" y="-443"/>
      <point x="1077" y="-516"/>
      <point x="1203" y="-516" type="curve" smooth="yes"/>
      <point x="1287" y="-516"/>
      <point x="1375" y="-491"/>
      <point x="1433" y="-448" type="curve"/>
      <point x="1433" y="-291" type="line"/>
      <point x="1391" y="-303"/>
      <point x="1347" y="-311"/>
      <point x="1308" y="-311" type="curve" smooth="yes"/>
      <point x="1241" y="-311"/>
      <point x="1190" y="-288"/>
      <point x="1187" y="-223" type="curve"/>
      <point x="1180" y="-123"/>
      <point x="1276" y="-58"/>
      <point x="1386" y="13" type="curve"/>
      <point x="1280" y="54" type="line"/>
      <point x="1160" y="1" type="line"/>
      <point x="1054" y="-57"/>
      <point x="933" y="-165"/>
    </contour>
    <component base="A"/>
  </outline>
</glyph>
<glyph name="Dcroat" format="1">
  <advance width="1554"/>
  <unicode hex="0110"/>
  <outline>
    <contour>
      <point x="69" y="694" type="line"/>
      <point x="846" y="694" type="line"/>
      <point x="846" y="895" type="line"/>
      <point x="69" y="895" type="line"/>
    </contour>
    <component base="D"/>
  </outline>
</glyph>
<glyph name="gcommaaccent" format="1">
  <advance width="1305"/>
  <unicode hex="0123"/>
  <outline>
    <contour>
      <point x="642" y="1856" type="line"/>
      <point x="566" y="1834"/>
      <point x="450" y="1713"/>
      <point x="450" y="1549" type="curve" smooth="yes"/>
      <point x="450" y="1398"/>
      <point x="553" y="1299"/>
      <point x="653" y="1288" type="curve"/>
      <point x="792" y="1409" type="line"/>
      <point x="792" y="1478" type="line"/>
      <point x="741" y="1488"/>
      <point x="707" y="1567"/>
      <point x="707" y="1629" type="curve" smooth="yes"/>
      <point x="707" y="1712"/>
      <point x="731" y="1747"/>
      <point x="760" y="1782" type="curve"/>
      <point x="760" y="1805" type="line"/>
    </contour>
    <component base="g"/>
  </outline>
</glyph>
<glyph name="dotlessi" format="1">
  <advance width="660"/>
  <unicode hex="0131"/>
  <outline>
    <contour>
      <point x="174" y="0" type="line"/>
      <point x="486" y="0" type="line"/>
      <point x="486" y="1140" type="line"/>
      <point x="174" y="1140" type="line"/>
    </contour>
    <contour>
      <point x="354" y="-170" type="move" name="btm"/>
    </contour>
    <contour>
      <point x="330" y="1700" type="move" name="top"/>
    </contour>
  </outline>
</glyph>
<glyph name="lacute" format="1">
  <advance width="672"/>
  <unicode hex="013A"/>
  <outline>
    <contour>
      <point x="180" y="0" type="line"/>
      <point x="492" y="0" type="line"/>
      <point x="492" y="1527" type="line"/>
      <point x="180" y="1527" type="line"/>
    </contour>
    <component base="acute.cap" xOffset="97"/>
  </outline>
</glyph>
<glyph name="Lslash" format="1">
  <advance width="1120"/>
  <unicode hex="0141"/>
  <outline>
    <contour>
      <point x="25" y="738" type="line"/>
      <point x="90" y="568" type="line"/>
      <point x="884" y="859" type="line"/>
      <point x="819" y="1031" type="line"/>
    </contour>
    <component base="L"/>
  </outline>
</glyph>
<glyph name="lslash" format="1">
  <advance width="672"/>
  <unicode hex="0142"/>
  <outline>
    <contour>
      <point x="18" y="710" type="line"/>
      <point x="672" y="951" type="line"/>
      <point x="672" y="1157" type="line"/>
      <point x="18" y="905" type="line"/>
    </contour>
    <component base="l"/>
  </outline>
</glyph>
<glyph name="eng" format="1">
  <advance width="1352"/>
  <unicode hex="014B"/>
  <outline>
    <contour>
      <point x="174" y="0" type="line"/>
      <point x="486" y="0" type="line"/>
      <point x="486" y="814" type="line"/>
      <point x="555" y="875"/>
      <point x="656" y="904"/>
      <point x="712" y="905" type="curve" smooth="yes"/>
      <point x="842" y="909"/>
      <point x="878" y="844"/>
      <point x="878" y="658" type="curve" smooth="yes"/>
      <point x="878" y="-45" type="line" smooth="yes"/>
      <point x="878" y="-275"/>
      <point x="839" y="-308"/>
      <point x="749" y="-308" type="curve" smooth="yes"/>
      <point x="725" y="-308"/>
      <point x="662" y="-304"/>
      <point x="641" y="-297" type="curve"/>
      <point x="641" y="-493" type="line"/>
      <point x="679" y="-501"/>
      <point x="773" y="-507"/>
      <point x="840" y="-507" type="curve" smooth="yes"/>
      <point x="1035" y="-507"/>
      <point x="1190" y="-376"/>
      <point x="1190" y="-31" type="curve" smooth="yes"/>
      <point x="1190" y="716" type="line" smooth="yes"/>
      <point x="1189" y="1050"/>
      <point x="1075" y="1167"/>
      <point x="834" y="1159" type="curve"/>
      <point x="694" y="1155"/>
      <point x="540" y="1076"/>
      <point x="463" y="1018" type="curve"/>
      <point x="457" y="1138" type="line"/>
      <point x="174" y="1138" type="line"/>
    </contour>
  </outline>
</glyph>
<glyph name="OE" format="1">
  <advance width="2133"/>
  <unicode hex="0152"/>
  <outline>
    <contour>
      <point x="106" y="769" type="curve" smooth="yes"/>
      <point x="97" y="314"/>
      <point x="355" y="-19"/>
      <point x="790" y="-16" type="curve" smooth="yes"/>
      <point x="926" y="-15"/>
      <point x="1049" y="18"/>
      <point x="1120" y="91" type="curve"/>
      <point x="1101" y="398" type="line"/>
      <point x="1043" y="264"/>
      <point x="945" y="221"/>
      <point x="804" y="221" type="curve" smooth="yes"/>
      <point x="563" y="221"/>
      <point x="431" y="437"/>
      <point x="431" y="758" type="curve" smooth="yes"/>
      <point x="431" y="1183"/>
      <point x="632" y="1296"/>
      <point x="820" y="1296" type="curve" smooth="yes"/>
      <point x="973" y="1296"/>
      <point x="1049" y="1205"/>
      <point x="1098" y="1133" type="curve"/>
      <point x="1123" y="1442" type="line"/>
      <point x="1054" y="1510"/>
      <point x="948" y="1539"/>
      <point x="820" y="1538" type="curve" smooth="yes"/>
      <point x="421" y="1534"/>
      <point x="116" y="1271"/>
    </contour>
    <contour>
      <point x="1054" y="0" type="line"/>
      <point x="2047" y="0" type="line"/>
      <point x="2047" y="251" type="line"/>
      <point x="1372" y="251" type="line"/>
      <point x="1372" y="663" type="line"/>
      <point x="1822" y="663" type="line"/>
      <point x="1822" y="904" type="line"/>
      <point x="1372" y="904" type="line"/>
      <point x="1372" y="1278" type="line"/>
      <point x="1982" y="1278" type="line"/>
      <point x="1982" y="1522" type="line"/>
      <point x="1054" y="1522" type="line"/>
    </contour>
    <contour>
      <point x="1069" y="-170" type="move" name="btm"/>
    </contour>
    <contour>
      <point x="1069" y="1700" type="move" name="top"/>
    </contour>
  </outline>
</glyph>
<glyph name="Uogonek" format="1">
  <advance width="1525"/>
  <unicode hex="0172"/>
  <outline>
    <contour>
      <point x="621" y="-296" type="curve"/>
      <point x="627" y="-423"/>
      <point x="756" y="-516"/>
      <point x="882" y="-516" type="curve" smooth="yes"/>
      <point x="966" y="-516"/>
      <point x="1054" y="-491"/>
      <point x="1112" y="-448" type="curve"/>
      <point x="1112" y="-291" type="line"/>
      <point x="1070" y="-303"/>
      <point x="1026" y="-311"/>
      <point x="987" y="-311" type="curve" smooth="yes"/>
      <point x="920" y="-311"/>
      <point x="869" y="-288"/>
      <point x="866" y="-223" type="curve"/>
      <point x="866" y="-84"/>
      <point x="997" y="25"/>
      <point x="1085" y="90" type="curve"/>
      <point x="959" y="54" type="line"/>
      <point x="820" y="11" type="line"/>
      <point x="714" y="-47"/>
      <point x="612" y="-145"/>
    </contour>
    <component base="U"/>
  </outline>
</glyph>
<glyph name="Oslashacute" format="1">
  <advance width="1595"/>
  <unicode hex="01FE"/>
  <outline>
    <contour>
      <point x="501" y="-220" type="line"/>
      <point x="1218" y="1749" type="line"/>
      <point x="1093" y="1781" type="line"/>
      <point x="376" y="-188" type="line"/>
    </contour>
    <component base="O"/>
    <component base="acute.cap" xOffset="514"/>
  </outline>
</glyph>
<glyph name="dotlessj" format="1">
  <advance width="644"/>
  <unicode hex="0237"/>
  <outline>
    <contour>
      <point x="-104" y="-483" type="line"/>
      <point x="-79" y="-493"/>
      <point x="32" y="-507"/>
      <point x="71" y="-507" type="curve" smooth="yes"/>
      <point x="330" y="-507"/>
      <point x="486" y="-342"/>
      <point x="486" y="82" type="curve" smooth="yes"/>
      <point x="486" y="1140" type="line"/>
      <point x="174" y="1140" type="line"/>
      <point x="174" y="1" type="line" smooth="yes"/>
      <point x="174" y="-228"/>
      <point x="133" y="-304"/>
      <point x="13" y="-304" type="curve" smooth="yes"/>
      <point x="-21" y="-304"/>
      <point x="-86" y="-291"/>
      <point x="-104" y="-282" type="curve"/>
    </contour>
    <contour>
      <point x="329" y="1701" type="move" name="top"/>
    </contour>
  </outline>
</glyph>
<glyph name="circumflex" format="1">
  <advance width="878"/>
  <unicode hex="02C6"/>
  <outline>
    <contour>
      <point x="199" y="1237" type="line"/>
      <point x="441" y="1483" type="line"/>
      <point x="674" y="1237" type="line"/>
      <point x="835" y="1327" type="line"/>
      <point x="552" y="1699" type="line"/>
      <point x="329" y="1699" type="line"/>
      <point x="43" y="1326" type="line"/>
    </contour>
    <contour>
      <point x="438" y="1701" type="move" name="_top"/>
    </contour>
  </outline>
</glyph>
<glyph name="caron" format="1">
  <advance width="834"/>
  <unicode hex="02C7"/>
  <outline>
    <contour>
      <point x="43" y="1610" type="line"/>
      <point x="329" y="1237" type="line"/>
      <point x="552" y="1237" type="line"/>
      <point x="835" y="1609" type="line"/>
      <point x="674" y="1699" type="line"/>
      <point x="441" y="1453" type="line"/>
      <point x="199" y="1699" type="line"/>
    </contour>
    <contour>
      <point x="442" y="1687" type="move" name="_top"/>
    </contour>
  </outline>
</glyph>
<glyph name="uni02c9" format="1">
  <advance width="701"/>
  <unicode hex="02C9"/>
  <outline>
    <contour>
      <point x="55" y="1767" type="line"/>
      <point x="646" y="1767" type="line"/>
      <point x="646" y="1973" type="line"/>
      <point x="55" y="1973" type="line"/>
    </contour>
    <contour>
      <point x="347" y="1701" type="move" name="_top"/>
    </contour>
  </outline>
</glyph>
<glyph name="dotaccent" format="1">
  <advance width="489"/>
  <unicode hex="02D9"/>
  <outline>
    <contour>
      <point x="236" y="1307" type="curve" smooth="yes"/>
      <point x="342" y="1307"/>
      <point x="434" y="1392"/>
      <point x="434" y="1495" type="curve" smooth="yes"/>
      <point x="434" y="1593"/>
      <point x="365" y="1665"/>
      <point x="254" y="1665" type="curve" smooth="yes"/>
      <point x="150" y="1665"/>
      <point x="55" y="1580"/>
      <point x="55" y="1478" type="curve" smooth="yes"/>
      <point x="55" y="1378"/>
      <point x="134" y="1307"/>
    </contour>
    <contour>
      <point x="249" y="1701" type="move" name="_top"/>
    </contour>
  </outline>
</glyph>
<glyph name="ring" format="1">
  <advance width="767"/>
  <unicode hex="02DA"/>
  <outline>
    <contour>
      <point x="380" y="1314" type="curve" smooth="yes"/>
      <point x="557" y="1314"/>
      <point x="723" y="1400"/>
      <point x="725" y="1604" type="curve" smooth="yes"/>
      <point x="726" y="1788"/>
      <point x="597" y="1888"/>
      <point x="389" y="1888" type="curve" smooth="yes"/>
      <point x="222" y="1888"/>
      <point x="46" y="1812"/>
      <point x="42" y="1608" type="curve" smooth="yes"/>
      <point x="39" y="1427"/>
      <point x="165" y="1314"/>
    </contour>
    <contour>
      <point x="383" y="1466" type="curve" smooth="yes"/>
      <point x="291" y="1466"/>
      <point x="226" y="1523"/>
      <point x="226" y="1607" type="curve" smooth="yes"/>
      <point x="226" y="1710"/>
      <point x="300" y="1743"/>
      <point x="383" y="1742" type="curve" smooth="yes"/>
      <point x="474" y="1741"/>
      <point x="542" y="1689"/>
      <point x="542" y="1600" type="curve" smooth="yes"/>
      <point x="542" y="1496"/>
      <point x="478" y="1465"/>
    </contour>
    <contour>
      <point x="384" y="1701" type="move" name="_top"/>
    </contour>
  </outline>
</glyph>
<glyph name="ogonek" format="1">
  <advance width="652"/>
  <unicode hex="02DB"/>
  <outline>
    <contour>
      <point x="321" y="-515" type="curve" smooth="yes"/>
      <point x="431" y="-515"/>
      <point x="521" y="-483"/>
      <point x="576" y="-445" type="curve"/>
      <point x="567" y="-310" type="line"/>
      <point x="530" y="-320"/>
      <point x="471" y="-338"/>
      <point x="418" y="-338" type="curve" smooth="yes"/>
      <point x="344" y="-338"/>
      <point x="300" y="-313"/>
      <point x="297" y="-254" type="curve" smooth="yes"/>
      <point x="290" y="-145"/>
      <point x="415" y="-44"/>
      <point x="532" y="19" type="curve"/>
      <point x="413" y="9" type="line"/>
      <point x="294" y="-7" type="line"/>
      <point x="181" y="-66"/>
      <point x="53" y="-176"/>
      <point x="62" y="-327" type="curve" smooth="yes"/>
      <point x="68" y="-453"/>
      <point x="193" y="-516"/>
    </contour>
  </outline>
</glyph>
<glyph name="hungarumlaut" format="1">
  <advance width="1045"/>
  <unicode hex="02DD"/>
  <outline>
    <contour>
      <point x="184" y="1321" type="line"/>
      <point x="277" y="1375"/>
      <point x="458" y="1581"/>
      <point x="522" y="1684" type="curve"/>
      <point x="327" y="1821" type="line"/>
      <point x="57" y="1414" type="line"/>
    </contour>
    <contour>
      <point x="698" y="1321" type="line"/>
      <point x="794" y="1365"/>
      <point x="980" y="1582"/>
      <point x="1044" y="1681" type="curve"/>
      <point x="848" y="1817" type="line"/>
      <point x="576" y="1414" type="line"/>
    </contour>
    <contour>
      <point x="420" y="1687" type="move" name="_top"/>
    </contour>
  </outline>
</glyph>
<glyph name="Germandbls" format="1">
  <advance width="1517"/>
  <unicode hex="1E9E"/>
  <outline>
    <contour>
      <point x="1383" y="1197" type="line" name="hr00"/>
      <point x="1384" y="1442" type="line"/>
      <point x="1282" y="1442"/>
      <point x="1114" y="1538"/>
      <point x="842" y="1538" type="curve" smooth="yes"/>
      <point x="359" y="1538"/>
      <point x="103" y="1240"/>
      <point x="103" y="753" type="curve" smooth="yes"/>
      <point x="103" y="0" type="line"/>
      <point x="443" y="0" type="line"/>
      <point x="443" y="868" type="line" smooth="yes"/>
      <point x="443" y="1161"/>
      <point x="591" y="1306"/>
      <point x="848" y="1306" type="curve" smooth="yes"/>
      <point x="932" y="1306"/>
      <point x="999" y="1289"/>
      <point x="1042" y="1264" type="curve"/>
      <point x="759" y="894" type="line"/>
      <point x="754" y="728" type="line"/>
      <point x="1045" y="728"/>
      <point x="1157" y="647"/>
      <point x="1157" y="457" type="curve" smooth="yes"/>
      <point x="1157" y="283"/>
      <point x="1031" y="211"/>
      <point x="917" y="211" type="curve" smooth="yes"/>
      <point x="814" y="211"/>
      <point x="721" y="253"/>
      <point x="676" y="286" type="curve"/>
      <point x="589" y="57" type="line"/>
      <point x="663" y="17"/>
      <point x="764" y="-23"/>
      <point x="978" y="-23" type="curve" smooth="yes"/>
      <point x="1296" y="-23"/>
      <point x="1498" y="183"/>
      <point x="1498" y="480" type="curve" smooth="yes"/>
      <point x="1498" y="763"/>
      <point x="1275" y="898"/>
      <point x="1130" y="898" type="curve"/>
    </contour>
  </outline>
</glyph>
<glyph name="endash" format="1">
  <advance width="1702"/>
  <unicode hex="2013"/>
  <outline>
    <contour>
      <point x="245" y="644" type="line"/>
      <point x="1457" y="644" type="line"/>
      <point x="1457" y="889" type="line"/>
      <point x="245" y="889" type="line"/>
    </contour>
  </outline>
</glyph>
<glyph name="emdash" format="1">
  <advance width="2413"/>
  <unicode hex="2014"/>
  <outline>
    <contour>
      <point x="245" y="644" type="line"/>
      <point x="2168" y="644" type="line"/>
      <point x="2168" y="889" type="line"/>
      <point x="245" y="889" type="line"/>
    </contour>
  </outline>
</glyph>
<glyph name="perthousand" format="1">
  <advance width="3111"/>
  <unicode hex="2030"/>
  <outline>
    <contour>
      <point x="2579" y="12" type="curve" smooth="yes"/>
      <point x="2803" y="14"/>
      <point x="3008" y="174"/>
      <point x="3008" y="464" type="curve" smooth="yes"/>
      <point x="3008" y="712"/>
      <point x="2888" y="912"/>
      <point x="2613" y="909" type="curve" smooth="yes"/>
      <point x="2389" y="907"/>
      <point x="2184" y="746"/>
      <point x="2184" y="456" type="curve" smooth="yes"/>
      <point x="2184" y="212"/>
      <point x="2314" y="11"/>
    </contour>
    <contour>
      <point x="2594" y="210" type="curve" smooth="yes"/>
      <point x="2492" y="210"/>
      <point x="2433" y="315"/>
      <point x="2433" y="466" type="curve" smooth="yes"/>
      <point x="2433" y="619"/>
      <point x="2492" y="713"/>
      <point x="2598" y="713" type="curve" smooth="yes"/>
      <point x="2700" y="713"/>
      <point x="2758" y="610"/>
      <point x="2758" y="456" type="curve" smooth="yes"/>
      <point x="2758" y="303"/>
      <point x="2700" y="210"/>
    </contour>
    <component base="percent"/>
  </outline>
</glyph>
<glyph name="guilsinglleft" format="1">
  <advance width="1214"/>
  <unicode hex="2039"/>
  <outline>
    <contour>
      <point x="235" y="492" type="line"/>
      <point x="891" y="76" type="line"/>
      <point x="966" y="290" type="line"/>
      <point x="463" y="669" type="line"/>
      <point x="463" y="560" type="line"/>
      <point x="966" y="941" type="line"/>
      <point x="891" y="1157" type="line"/>
      <point x="235" y="735" type="line"/>
    </contour>
  </outline>
</glyph>
<glyph name="fraction" format="1">
  <advance width="1036"/>
  <unicode hex="2044"/>
  <outline>
    <contour>
      <point x="367" y="0" type="line"/>
      <point x="909" y="1530" type="line"/>
      <point x="666" y="1530" type="line"/>
      <point x="127" y="0" type="line"/>
    </contour>
  </outline>
</glyph>
<glyph name="colonmonetary" format="1">
  <advance width="1438"/>
  <unicode hex="20A1"/>
  <outline>
    <contour>
      <point x="98" y="757" type="curve" smooth="yes" name="hr00"/>
      <point x="98" y="385"/>
      <point x="271" y="123"/>
      <point x="599" y="26" type="curve"/>
      <point x="574" y="-354" type="line"/>
      <point x="691" y="-354" type="line"/>
      <point x="714" y="0" type="line"/>
      <point x="757" y="-7"/>
      <point x="803" y="-12"/>
      <point x="850" y="-14" type="curve"/>
      <point x="828" y="-354" type="line"/>
      <point x="945" y="-354" type="line"/>
      <point x="967" y="-14" type="line"/>
      <point x="1114" y="-6"/>
      <point x="1215" y="34"/>
      <point x="1282" y="64" type="curve"/>
      <point x="1282" y="364" type="line"/>
      <point x="1235" y="321"/>
      <point x="1110" y="274"/>
      <point x="986" y="267" type="curve"/>
      <point x="1051" y="1240" type="line"/>
      <point x="1169" y="1224"/>
      <point x="1233" y="1182"/>
      <point x="1256" y="1165" type="curve"/>
      <point x="1302" y="1477" type="line"/>
      <point x="1249" y="1490"/>
      <point x="1182" y="1515"/>
      <point x="1070" y="1529" type="curve"/>
      <point x="1089" y="1815" type="line"/>
      <point x="972" y="1815" type="line"/>
      <point x="953" y="1537" type="line"/>
      <point x="941" y="1538"/>
      <point x="929" y="1538"/>
      <point x="917" y="1538" type="curve" smooth="yes"/>
      <point x="883" y="1538"/>
      <point x="849" y="1536"/>
      <point x="816" y="1533" type="curve"/>
      <point x="835" y="1815" type="line"/>
      <point x="718" y="1815" type="line"/>
      <point x="698" y="1516" type="line"/>
      <point x="352" y="1443"/>
      <point x="98" y="1189"/>
    </contour>
    <contour>
      <point x="734" y="304" type="curve"/>
      <point x="796" y="1228" type="line"/>
      <point x="839" y="1239"/>
      <point x="885" y="1245"/>
      <point x="934" y="1246" type="curve"/>
      <point x="869" y="271" type="line"/>
      <point x="819" y="277"/>
      <point x="775" y="288"/>
    </contour>
    <contour>
      <point x="473" y="779" type="curve" smooth="yes"/>
      <point x="473" y="967"/>
      <point x="549" y="1103"/>
      <point x="675" y="1179" type="curve"/>
      <point x="622" y="374" type="line"/>
      <point x="522" y="463"/>
      <point x="473" y="603"/>
    </contour>
  </outline>
</glyph>
<glyph name="lira" format="1">
  <advance width="1596"/>
  <unicode hex="20A4"/>
  <outline>
    <contour>
      <point x="231" y="844" type="line" name="hr00"/>
      <point x="408" y="844" type="line"/>
      <point x="408" y="726" type="line"/>
      <point x="209" y="726" type="line"/>
      <point x="209" y="576" type="line"/>
      <point x="408" y="576" type="line"/>
      <point x="408" y="527" type="line" smooth="yes"/>
      <point x="408" y="437"/>
      <point x="404" y="330"/>
      <point x="377" y="301" type="curve"/>
      <point x="245" y="292"/>
      <point x="113" y="225"/>
      <point x="113" y="112" type="curve" smooth="yes"/>
      <point x="113" y="24"/>
      <point x="198" y="-6"/>
      <point x="265" y="-6" type="curve" smooth="yes"/>
      <point x="344" y="-6"/>
      <point x="439" y="48"/>
      <point x="479" y="86" type="curve"/>
      <point x="585" y="85"/>
      <point x="762" y="-16"/>
      <point x="1058" y="-16" type="curve" smooth="yes"/>
      <point x="1385" y="-16"/>
      <point x="1530" y="128"/>
      <point x="1530" y="342" type="curve" smooth="yes"/>
      <point x="1530" y="497"/>
      <point x="1419" y="596"/>
      <point x="1378" y="620" type="curve"/>
      <point x="1120" y="504" type="line"/>
      <point x="1147" y="492"/>
      <point x="1195" y="432"/>
      <point x="1195" y="368" type="curve" smooth="yes"/>
      <point x="1195" y="278"/>
      <point x="1128" y="210"/>
      <point x="974" y="210" type="curve" smooth="yes"/>
      <point x="852" y="210"/>
      <point x="777" y="250"/>
      <point x="680" y="272" type="curve"/>
      <point x="740" y="327"/>
      <point x="756" y="439"/>
      <point x="759" y="576" type="curve"/>
      <point x="1053" y="576" type="line"/>
      <point x="1053" y="726" type="line"/>
      <point x="760" y="726" type="line"/>
      <point x="760" y="844" type="line"/>
      <point x="1075" y="844" type="line"/>
      <point x="1075" y="994" type="line"/>
      <point x="760" y="994" type="line"/>
      <point x="760" y="1212"/>
      <point x="839" y="1260"/>
      <point x="977" y="1260" type="curve" smooth="yes"/>
      <point x="1086" y="1260"/>
      <point x="1173" y="1214"/>
      <point x="1214" y="1175" type="curve"/>
      <point x="1358" y="1432" type="line"/>
      <point x="1297" y="1477"/>
      <point x="1186" y="1538"/>
      <point x="978" y="1538" type="curve" smooth="yes"/>
      <point x="621" y="1538"/>
      <point x="408" y="1334"/>
      <point x="408" y="1037" type="curve" smooth="yes"/>
      <point x="408" y="994" type="line"/>
      <point x="231" y="994" type="line"/>
    </contour>
  </outline>
</glyph>
<glyph name="peseta" format="1">
  <advance width="1519"/>
  <unicode hex="20A7"/>
  <outline>
    <contour>
      <point x="33" y="918" type="line" name="hr00"/>
      <point x="197" y="918" type="line"/>
      <point x="197" y="0" type="line"/>
      <point x="564" y="0" type="line"/>
      <point x="564" y="461" type="line"/>
      <point x="602" y="460"/>
      <point x="650" y="458"/>
      <point x="748" y="458" type="curve" smooth="yes"/>
      <point x="1118" y="458"/>
      <point x="1330" y="618"/>
      <point x="1365" y="918" type="curve"/>
      <point x="1511" y="918" type="line"/>
      <point x="1511" y="1065" type="line"/>
      <point x="1368" y="1065" type="line"/>
      <point x="1348" y="1414"/>
      <point x="1130" y="1538"/>
      <point x="781" y="1538" type="curve" smooth="yes"/>
      <point x="620" y="1538"/>
      <point x="482" y="1522"/>
      <point x="370" y="1522" type="curve" smooth="yes"/>
      <point x="197" y="1522" type="line"/>
      <point x="197" y="1065" type="line"/>
      <point x="33" y="1065" type="line"/>
    </contour>
    <contour>
      <point x="564" y="1277" type="line"/>
      <point x="617" y="1285"/>
      <point x="683" y="1289"/>
      <point x="740" y="1290" type="curve" smooth="yes"/>
      <point x="910" y="1292"/>
      <point x="995" y="1208"/>
      <point x="1012" y="1065" type="curve"/>
      <point x="564" y="1065" type="line"/>
    </contour>
    <contour>
      <point x="564" y="718" type="curve"/>
      <point x="564" y="918" type="line"/>
      <point x="1009" y="918" type="line"/>
      <point x="982" y="767"/>
      <point x="882" y="710"/>
      <point x="749" y="710" type="curve" smooth="yes"/>
      <point x="663" y="710"/>
      <point x="617" y="713"/>
    </contour>
  </outline>
</glyph>
<glyph name="won" format="1">
  <advance width="2004"/>
  <unicode hex="20A9"/>
  <outline>
    <contour>
      <point x="1948" y="405" type="line" name="hr00"/>
      <point x="1948" y="599" type="line"/>
      <point x="1678" y="599" type="line"/>
      <point x="1714" y="769" type="line"/>
      <point x="1948" y="769" type="line"/>
      <point x="1948" y="963" type="line"/>
      <point x="1757" y="963" type="line"/>
      <point x="1879" y="1522" type="line"/>
      <point x="1604" y="1522" type="line"/>
      <point x="1508" y="963" type="line"/>
      <point x="1262" y="963" type="line"/>
      <point x="1142" y="1522" type="line"/>
      <point x="875" y="1522" type="line"/>
      <point x="754" y="963" type="line"/>
      <point x="513" y="963" type="line"/>
      <point x="419" y="1522" type="line"/>
      <point x="125" y="1522" type="line"/>
      <point x="247" y="963" type="line"/>
      <point x="57" y="963" type="line"/>
      <point x="57" y="769" type="line"/>
      <point x="289" y="769" type="line"/>
      <point x="327" y="599" type="line"/>
      <point x="57" y="599" type="line"/>
      <point x="57" y="405" type="line"/>
      <point x="369" y="405" type="line"/>
      <point x="459" y="-7" type="line"/>
      <point x="787" y="-7" type="line"/>
      <point x="868" y="405" type="line"/>
      <point x="1131" y="405" type="line"/>
      <point x="1216" y="-7" type="line"/>
      <point x="1546" y="-7" type="line"/>
      <point x="1635" y="405" type="line"/>
    </contour>
    <contour>
      <point x="997" y="1154" type="line"/>
      <point x="1023" y="963" type="line"/>
      <point x="973" y="963" type="line"/>
    </contour>
    <contour>
      <point x="1303" y="769" type="line"/>
      <point x="1475" y="769" type="line"/>
      <point x="1445" y="599" type="line"/>
      <point x="1340" y="599" type="line"/>
    </contour>
    <contour>
      <point x="940" y="769" type="line"/>
      <point x="1057" y="769" type="line"/>
      <point x="1092" y="599" type="line"/>
      <point x="906" y="599" type="line"/>
    </contour>
    <contour>
      <point x="545" y="769" type="line"/>
      <point x="712" y="769" type="line"/>
      <point x="676" y="599" type="line"/>
      <point x="573" y="599" type="line"/>
    </contour>
    <contour>
      <point x="1373" y="405" type="line"/>
      <point x="1420" y="405" type="line"/>
      <point x="1400" y="240" type="line"/>
    </contour>
    <contour>
      <point x="599" y="405" type="line"/>
      <point x="645" y="405" type="line"/>
      <point x="622" y="227" type="line"/>
    </contour>
  </outline>
</glyph>
<glyph name="sheqel" format="1">
  <advance width="1933"/>
  <unicode hex="20AA"/>
  <outline>
    <contour>
      <point x="1459" y="1522" type="line" name="hr00"/>
      <point x="1459" y="245" type="line"/>
      <point x="1118" y="245" type="line" smooth="yes"/>
      <point x="924" y="245"/>
      <point x="890" y="284"/>
      <point x="890" y="425" type="curve" smooth="yes"/>
      <point x="890" y="1098" type="line"/>
      <point x="605" y="1098" type="line"/>
      <point x="605" y="424" type="line" smooth="yes"/>
      <point x="605" y="114"/>
      <point x="741" y="0"/>
      <point x="985" y="0" type="curve" smooth="yes"/>
      <point x="1736" y="0" type="line"/>
      <point x="1736" y="1522" type="line"/>
    </contour>
    <contour>
      <point x="474" y="0" type="line"/>
      <point x="474" y="1258" type="line"/>
      <point x="913" y="1258" type="line" smooth="yes"/>
      <point x="1066" y="1258"/>
      <point x="1060" y="1179"/>
      <point x="1060" y="1038" type="curve" smooth="yes"/>
      <point x="1060" y="395" type="line"/>
      <point x="1337" y="395" type="line"/>
      <point x="1337" y="1099" type="line" smooth="yes"/>
      <point x="1337" y="1412"/>
      <point x="1264" y="1522"/>
      <point x="1037" y="1522" type="curve" smooth="yes"/>
      <point x="197" y="1522" type="line"/>
      <point x="197" y="0" type="line"/>
    </contour>
  </outline>
</glyph>
<glyph name="dong" format="1">
  <advance width="1374"/>
  <unicode hex="20AB"/>
  <outline>
    <contour>
      <point x="501" y="1353" type="line" name="hr00"/>
      <point x="829" y="1353" type="line"/>
      <point x="832" y="1232" type="line"/>
      <point x="797" y="1240"/>
      <point x="744" y="1248"/>
      <point x="670" y="1248" type="curve" smooth="yes"/>
      <point x="351" y="1248"/>
      <point x="151" y="1059"/>
      <point x="151" y="736" type="curve" smooth="yes"/>
      <point x="151" y="433"/>
      <point x="341" y="291"/>
      <point x="562" y="291" type="curve" smooth="yes"/>
      <point x="742" y="291"/>
      <point x="822" y="360"/>
      <point x="865" y="401" type="curve"/>
      <point x="865" y="331" type="line" smooth="yes"/>
      <point x="865" y="323"/>
      <point x="865" y="291"/>
      <point x="888" y="291" type="curve" smooth="yes"/>
      <point x="1156" y="291" type="line"/>
      <point x="1156" y="1353" type="line"/>
      <point x="1338" y="1353" type="line"/>
      <point x="1338" y="1521" type="line"/>
      <point x="1156" y="1521" type="line"/>
      <point x="1156" y="1694" type="line"/>
      <point x="829" y="1694" type="line"/>
      <point x="829" y="1521" type="line"/>
      <point x="501" y="1521" type="line"/>
    </contour>
    <contour>
      <point x="638" y="520" type="curve" smooth="yes"/>
      <point x="555" y="520"/>
      <point x="480" y="583"/>
      <point x="480" y="742" type="curve" smooth="yes"/>
      <point x="480" y="912"/>
      <point x="525" y="1029"/>
      <point x="680" y="1029" type="curve" smooth="yes"/>
      <point x="784" y="1029"/>
      <point x="815" y="1006"/>
      <point x="829" y="993" type="curve"/>
      <point x="829" y="579" type="line"/>
      <point x="803" y="561"/>
      <point x="757" y="520"/>
    </contour>
    <contour>
      <point x="135" y="0" type="line"/>
      <point x="1240" y="0" type="line"/>
      <point x="1240" y="197" type="line"/>
      <point x="135" y="197" type="line"/>
    </contour>
  </outline>
</glyph>
<glyph name="euro" format="1">
  <advance width="1504"/>
  <unicode hex="20AC"/>
  <outline>
    <contour>
      <point x="948" y="-28" type="curve" smooth="yes"/>
      <point x="1233" y="-28"/>
      <point x="1294" y="38"/>
      <point x="1380" y="50" type="curve"/>
      <point x="1320" y="284" type="line"/>
      <point x="1253" y="238"/>
      <point x="1127" y="201"/>
      <point x="995" y="201" type="curve" smooth="yes"/>
      <point x="685" y="201"/>
      <point x="612" y="444"/>
      <point x="612" y="789" type="curve" smooth="yes"/>
      <point x="612" y="1147"/>
      <point x="772" y="1303"/>
      <point x="998" y="1302" type="curve" smooth="yes"/>
      <point x="1164" y="1301"/>
      <point x="1229" y="1276"/>
      <point x="1301" y="1234" type="curve"/>
      <point x="1354" y="1477" type="line"/>
      <point x="1269" y="1496"/>
      <point x="1191" y="1546"/>
      <point x="969" y="1538" type="curve" smooth="yes"/>
      <point x="550" y="1523"/>
      <point x="280" y="1245"/>
      <point x="280" y="720" type="curve" smooth="yes"/>
      <point x="280" y="256"/>
      <point x="506" y="-28"/>
    </contour>
    <contour>
      <point x="129" y="857" type="line"/>
      <point x="1146" y="857" type="line"/>
      <point x="1146" y="1049" type="line"/>
      <point x="129" y="1049" type="line"/>
    </contour>
    <contour>
      <point x="92" y="472" type="line"/>
      <point x="1097" y="472" type="line"/>
      <point x="1097" y="664" type="line"/>
      <point x="92" y="664" type="line"/>
    </contour>
  </outline>
</glyph>
<glyph name="uni20B2" format="1">
  <advance width="1525"/>
  <unicode hex="20B2"/>
  <outline>
    <contour>
      <point x="78" y="753" type="curve" smooth="yes" name="hr00"/>
      <point x="78" y="324"/>
      <point x="316" y="48"/>
      <point x="682" y="-6" type="curve"/>
      <point x="680" y="-258" type="line"/>
      <point x="887" y="-258" type="line"/>
      <point x="889" y="-14" type="line"/>
      <point x="1178" y="-2"/>
      <point x="1256" y="82"/>
      <point x="1376" y="87" type="curve"/>
      <point x="1376" y="841" type="line"/>
      <point x="818" y="841" type="line"/>
      <point x="818" y="589" type="line"/>
      <point x="1048" y="571" type="line"/>
      <point x="1048" y="289" type="line"/>
      <point x="1003" y="262"/>
      <point x="919" y="251"/>
      <point x="821" y="251" type="curve" smooth="yes"/>
      <point x="583" y="251"/>
      <point x="447" y="471"/>
      <point x="447" y="780" type="curve" smooth="yes"/>
      <point x="447" y="1077"/>
      <point x="605" y="1256"/>
      <point x="869" y="1256" type="curve" smooth="yes"/>
      <point x="1066" y="1256"/>
      <point x="1208" y="1215"/>
      <point x="1283" y="1174" type="curve"/>
      <point x="1293" y="1477" type="line"/>
      <point x="1197" y="1495"/>
      <point x="1098" y="1529"/>
      <point x="926" y="1536" type="curve"/>
      <point x="926" y="1762" type="line"/>
      <point x="719" y="1762" type="line"/>
      <point x="719" y="1530" type="line"/>
      <point x="353" y="1485"/>
      <point x="78" y="1252"/>
    </contour>
  </outline>
</glyph>
<glyph name="uni20BA" format="1">
  <advance width="1478"/>
  <unicode hex="20BA"/>
  <outline>
    <contour>
      <point x="1090" y="719" type="line" name="hr00"/>
      <point x="1083" y="407"/>
      <point x="951" y="256"/>
      <point x="665" y="256" type="curve"/>
      <point x="665" y="671" type="line"/>
      <point x="1072" y="842" type="line"/>
      <point x="1072" y="1009" type="line"/>
      <point x="665" y="838" type="line"/>
      <point x="665" y="1039" type="line"/>
      <point x="1094" y="1222" type="line"/>
      <point x="1094" y="1399" type="line"/>
      <point x="665" y="1216" type="line"/>
      <point x="665" y="1538" type="line"/>
      <point x="332" y="1538" type="line"/>
      <point x="332" y="1075" type="line"/>
      <point x="118" y="984" type="line"/>
      <point x="118" y="807" type="line"/>
      <point x="332" y="898" type="line"/>
      <point x="332" y="698" type="line"/>
      <point x="128" y="612" type="line"/>
      <point x="128" y="445" type="line"/>
      <point x="332" y="531" type="line"/>
      <point x="332" y="0" type="line"/>
      <point x="665" y="0" type="line" smooth="yes"/>
      <point x="1106" y="0"/>
      <point x="1390" y="256"/>
      <point x="1390" y="664" type="curve" smooth="yes"/>
      <point x="1390" y="719" type="line"/>
    </contour>
  </outline>
</glyph>
<glyph name="uni2113" format="1">
  <advance width="1387"/>
  <unicode hex="2113"/>
  <outline>
    <contour>
      <point x="236" y="51" type="line"/>
      <point x="782" y="370"/>
      <point x="1214" y="795"/>
      <point x="1214" y="1285" type="curve" smooth="yes"/>
      <point x="1214" y="1491"/>
      <point x="1114" y="1633"/>
      <point x="922" y="1633" type="curve" smooth="yes"/>
      <point x="458" y="1633"/>
      <point x="262" y="988"/>
      <point x="262" y="602" type="curve" smooth="yes"/>
      <point x="262" y="118"/>
      <point x="531" y="-27"/>
      <point x="692" y="-27" type="curve" smooth="yes"/>
      <point x="1069" y="-27"/>
      <point x="1173" y="214"/>
      <point x="1265" y="374" type="curve"/>
      <point x="1026" y="466" type="line"/>
      <point x="967" y="332"/>
      <point x="865" y="209"/>
      <point x="733" y="209" type="curve" smooth="yes"/>
      <point x="552" y="209"/>
      <point x="541" y="448"/>
      <point x="541" y="552" type="curve" smooth="yes"/>
      <point x="541" y="938"/>
      <point x="708" y="1398"/>
      <point x="865" y="1398" type="curve" smooth="yes"/>
      <point x="921" y="1398"/>
      <point x="931" y="1332"/>
      <point x="932" y="1275" type="curve" smooth="yes"/>
      <point x="943" y="830"/>
      <point x="337" y="367"/>
      <point x="-13" y="174" type="curve"/>
    </contour>
    <contour>
      <point x="444" y="20" type="move" name="btm"/>
    </contour>
    <contour>
      <point x="447" y="1890" type="move" name="top"/>
    </contour>
  </outline>
</glyph>
<glyph name="trademark" format="1">
  <advance width="2228"/>
  <unicode hex="2122"/>
  <outline>
    <contour>
      <point x="397" y="767" type="line"/>
      <point x="616" y="767" type="line"/>
      <point x="616" y="1352" type="line"/>
      <point x="872" y="1351" type="line"/>
      <point x="872" y="1543" type="line"/>
      <point x="148" y="1543" type="line"/>
      <point x="149" y="1351" type="line"/>
      <point x="397" y="1352" type="line"/>
    </contour>
    <contour>
      <point x="1193" y="767" type="line"/>
      <point x="1210" y="1254" type="line"/>
      <point x="1214" y="1416" type="line"/>
      <point x="1200" y="1416" type="line"/>
      <point x="1264" y="1222" type="line"/>
      <point x="1446" y="764" type="line"/>
      <point x="1594" y="764" type="line"/>
      <point x="1762" y="1222" type="line"/>
      <point x="1817" y="1414" type="line"/>
      <point x="1804" y="1414" type="line"/>
      <point x="1812" y="1254" type="line"/>
      <point x="1843" y="767" type="line"/>
      <point x="2059" y="767" type="line"/>
      <point x="1991" y="1543" type="line"/>
      <point x="1654" y="1543" type="line"/>
      <point x="1547" y="1202" type="line"/>
      <point x="1493" y="918" type="line"/>
      <point x="1557" y="918" type="line"/>
      <point x="1488" y="1202" type="line"/>
      <point x="1374" y="1543" type="line"/>
      <point x="1020" y="1543" type="line"/>
      <point x="977" y="767" type="line"/>
    </contour>
  </outline>
</glyph>
<glyph name="Omega" format="1">
  <advance width="1834"/>
  <unicode hex="2126"/>
  <outline>
    <contour>
      <point x="788" y="179" type="line"/>
      <point x="668" y="251"/>
      <point x="515" y="484"/>
      <point x="515" y="817" type="curve" smooth="yes"/>
      <point x="515" y="1179"/>
      <point x="704" y="1324"/>
      <point x="918" y="1324" type="curve" smooth="yes"/>
      <point x="1118" y="1324"/>
      <point x="1303" y="1177"/>
      <point x="1303" y="817" type="curve" smooth="yes"/>
      <point x="1303" y="484"/>
      <point x="1179" y="251"/>
      <point x="1059" y="179" type="curve"/>
      <point x="1059" y="0" type="line"/>
      <point x="1072" y="7"/>
      <point x="1209" y="133"/>
      <point x="1224" y="140" type="curve"/>
      <point x="1441" y="225"/>
      <point x="1626" y="528"/>
      <point x="1632" y="844" type="curve" smooth="yes"/>
      <point x="1641" y="1326"/>
      <point x="1347" y="1545"/>
      <point x="918" y="1545" type="curve" smooth="yes"/>
      <point x="536" y="1545"/>
      <point x="196" y="1351"/>
      <point x="186" y="844" type="curve" smooth="yes"/>
      <point x="180" y="528"/>
      <point x="410" y="219"/>
      <point x="585" y="146" type="curve"/>
      <point x="788" y="0" type="line"/>
    </contour>
    <contour>
      <point x="169" y="0" type="line"/>
      <point x="788" y="0" type="line"/>
      <point x="591" y="218" type="line"/>
      <point x="169" y="218" type="line"/>
    </contour>
    <contour>
      <point x="1059" y="0" type="line"/>
      <point x="1665" y="0" type="line"/>
      <point x="1665" y="218" type="line"/>
      <point x="1177" y="218" type="line"/>
    </contour>
  </outline>
</glyph>
<glyph name="estimated" format="1">
  <advance width="1383"/>
  <unicode hex="212E"/>
  <outline>
    <contour>
      <point x="732" y="-16" type="curve" smooth="yes"/>
      <point x="926" y="-16"/>
      <point x="1113" y="54"/>
      <point x="1198" y="115" type="curve"/>
      <point x="1128" y="266" type="line"/>
      <point x="1055" y="211"/>
      <point x="915" y="147"/>
      <point x="750" y="147" type="curve" smooth="yes"/>
      <point x="517" y="147"/>
      <point x="335" y="249"/>
      <point x="321" y="585" type="curve"/>
      <point x="315" y="681"/>
      <point x="320" y="800"/>
      <point x="335" y="868" type="curve" smooth="yes"/>
      <point x="386" y="1104"/>
      <point x="542" y="1193"/>
      <point x="722" y="1193" type="curve" smooth="yes"/>
      <point x="983" y="1193"/>
      <point x="1050" y="1054"/>
      <point x="1066" y="899" type="curve" smooth="yes"/>
      <point x="1071" y="860"/>
      <point x="1071" y="808"/>
      <point x="1069" y="768" type="curve"/>
      <point x="248" y="768" type="line"/>
      <point x="228" y="612" type="line"/>
      <point x="1263" y="612" type="line"/>
      <point x="1274" y="663"/>
      <point x="1274" y="746"/>
      <point x="1274" y="832" type="curve"/>
      <point x="1263" y="1161"/>
      <point x="1031" y="1361"/>
      <point x="736" y="1356" type="curve" smooth="yes"/>
      <point x="310" y="1349"/>
      <point x="109" y="1063"/>
      <point x="109" y="671" type="curve" smooth="yes"/>
      <point x="109" y="241"/>
      <point x="334" y="-16"/>
    </contour>
    <contour>
      <point x="299" y="237" type="line"/>
      <point x="435" y="175" type="line"/>
      <point x="435" y="1171" type="line"/>
      <point x="299" y="1078" type="line"/>
    </contour>
    <contour>
      <point x="970" y="736" type="line"/>
      <point x="1093" y="736" type="line"/>
      <point x="1093" y="1158" type="line"/>
      <point x="970" y="1198" type="line"/>
    </contour>
  </outline>
</glyph>
<glyph name="Delta" format="1">
  <advance width="1622"/>
  <unicode hex="2206"/>
  <outline>
    <contour>
      <point x="92" y="0" type="line"/>
      <point x="1528" y="0" type="line"/>
      <point x="1544" y="27" type="line"/>
      <point x="797" y="1508" type="line"/>
      <point x="765" y="1508" type="line"/>
      <point x="78" y="22" type="line"/>
    </contour>
    <contour>
      <point x="453" y="252" type="line"/>
      <point x="785" y="986" type="line"/>
      <point x="1137" y="252" type="line"/>
    </contour>
  </outline>
</glyph>
<glyph name="uni2215" format="1">
  <advance width="854"/>
  <unicode hex="2215"/>
  <outline>
    <contour>
      <point x="-96" y="-363" type="line"/>
      <point x="176" y="-363" type="line"/>
      <point x="951" y="1599" type="line"/>
      <point x="679" y="1599" type="line"/>
    </contour>
  </outline>
</glyph>
<glyph name="uni2219" format="1">
  <advance width="641"/>
  <unicode hex="2219"/>
  <outline>
    <contour>
      <point x="312" y="561" type="curve" smooth="yes"/>
      <point x="439" y="561"/>
      <point x="541" y="671"/>
      <point x="539" y="800" type="curve" smooth="yes"/>
      <point x="538" y="922"/>
      <point x="461" y="1016"/>
      <point x="331" y="1016" type="curve" smooth="yes"/>
      <point x="205" y="1016"/>
      <point x="101" y="905"/>
      <point x="102" y="778" type="curve" smooth="yes"/>
      <point x="103" y="654"/>
      <point x="192" y="561"/>
    </contour>
  </outline>
</glyph>
<glyph name="radical" format="1">
  <advance width="1642"/>
  <unicode hex="221A"/>
  <outline>
    <contour>
      <point x="709" y="-354" type="line"/>
      <point x="970" y="-354" type="line"/>
      <point x="1687" y="1870" type="line"/>
      <point x="1379" y="1870" type="line"/>
      <point x="805" y="-91" type="line"/>
      <point x="877" y="-91" type="line"/>
      <point x="588" y="716" type="line"/>
      <point x="384" y="716" type="line"/>
      <point x="109" y="574" type="line"/>
      <point x="216" y="353" type="line"/>
      <point x="374" y="434" type="line"/>
    </contour>
  </outline>
</glyph>
<glyph name="infinity" format="1">
  <advance width="2006"/>
  <unicode hex="221E"/>
  <outline>
    <contour>
      <point x="568" y="182" type="curve" smooth="yes"/>
      <point x="841" y="185"/>
      <point x="1023" y="418"/>
      <point x="1115" y="597" type="curve"/>
      <point x="964" y="726" type="line"/>
      <point x="846" y="514"/>
      <point x="729" y="396"/>
      <point x="600" y="396" type="curve" smooth="yes"/>
      <point x="428" y="396"/>
      <point x="354" y="499"/>
      <point x="354" y="618" type="curve" smooth="yes"/>
      <point x="354" y="751"/>
      <point x="436" y="836"/>
      <point x="547" y="836" type="curve" smooth="yes"/>
      <point x="697" y="836"/>
      <point x="823" y="656"/>
      <point x="897" y="521" type="curve"/>
      <point x="1143" y="636" type="line"/>
      <point x="1030" y="830"/>
      <point x="915" y="1053"/>
      <point x="560" y="1053" type="curve" smooth="yes"/>
      <point x="270" y="1053"/>
      <point x="84" y="853"/>
      <point x="84" y="617" type="curve" smooth="yes"/>
      <point x="84" y="391"/>
      <point x="247" y="177"/>
    </contour>
    <contour>
      <point x="1443" y="178" type="curve" smooth="yes"/>
      <point x="1743" y="178"/>
      <point x="1922" y="375"/>
      <point x="1922" y="614" type="curve" smooth="yes"/>
      <point x="1922" y="833"/>
      <point x="1775" y="1054"/>
      <point x="1440" y="1049" type="curve"/>
      <point x="1171" y="1046"/>
      <point x="989" y="809"/>
      <point x="897" y="634" type="curve"/>
      <point x="1050" y="505" type="line"/>
      <point x="1168" y="716"/>
      <point x="1279" y="829"/>
      <point x="1408" y="829" type="curve" smooth="yes"/>
      <point x="1575" y="829"/>
      <point x="1649" y="733"/>
      <point x="1649" y="615" type="curve" smooth="yes"/>
      <point x="1649" y="481"/>
      <point x="1572" y="390"/>
      <point x="1455" y="390" type="curve" smooth="yes"/>
      <point x="1303" y="390"/>
      <point x="1185" y="577"/>
      <point x="1110" y="714" type="curve"/>
      <point x="864" y="598" type="line"/>
      <point x="978" y="405"/>
      <point x="1086" y="178"/>
    </contour>
  </outline>
</glyph>
<glyph name="notequal" format="1">
  <advance width="1423"/>
  <unicode hex="2260"/>
  <outline>
    <contour>
      <point x="406" y="203" type="line"/>
      <point x="598" y="203" type="line"/>
      <point x="716" y="535" type="line"/>
      <point x="723" y="550" type="line"/>
      <point x="891" y="1031" type="line"/>
      <point x="897" y="1044" type="line"/>
      <point x="997" y="1319" type="line"/>
      <point x="803" y="1319" type="line"/>
      <point x="704" y="1045" type="line"/>
      <point x="698" y="1031" type="line"/>
      <point x="530" y="551" type="line"/>
      <point x="524" y="537" type="line"/>
    </contour>
    <component base="equal"/>
  </outline>
</glyph>
<glyph name="lozenge" format="1">
  <advance width="1314"/>
  <unicode hex="25CA"/>
  <outline>
    <contour>
      <point x="656" y="1156" type="line"/>
      <point x="659" y="1156" type="line"/>
      <point x="958" y="772" type="line"/>
      <point x="958" y="769" type="line"/>
      <point x="659" y="363" type="line"/>
      <point x="656" y="363" type="line"/>
      <point x="357" y="766" type="line"/>
      <point x="357" y="772" type="line"/>
    </contour>
    <contour>
      <point x="70" y="775" type="line"/>
      <point x="70" y="762" type="line"/>
      <point x="655" y="0" type="line"/>
      <point x="660" y="0" type="line"/>
      <point x="1245" y="762" type="line"/>
      <point x="1245" y="775" type="line"/>
      <point x="660" y="1536" type="line"/>
      <point x="656" y="1536" type="line"/>
    </contour>
  </outline>
</glyph>
<glyph name="commaaccent" format="1">
  <advance width="415"/>
  <unicode hex="F6C3"/>
  <outline>
    <contour>
      <point x="198" y="-560" type="line"/>
      <point x="240" y="-545"/>
      <point x="348" y="-443"/>
      <point x="348" y="-281" type="curve" smooth="yes"/>
      <point x="348" y="-166"/>
      <point x="281" y="-96"/>
      <point x="239" y="-86" type="curve"/>
      <point x="55" y="-184" type="line"/>
      <point x="55" y="-234" type="line"/>
      <point x="83" y="-247"/>
      <point x="117" y="-301"/>
      <point x="117" y="-354" type="curve" smooth="yes"/>
      <point x="117" y="-428"/>
      <point x="105" y="-470"/>
      <point x="87" y="-490" type="curve"/>
      <point x="87" y="-516" type="line"/>
    </contour>
    <contour>
      <point x="178" y="-170" type="move" name="_btm"/>
    </contour>
  </outline>
</glyph>
<glyph name="IJ_acutecomb" format="1">
  <advance width="1520"/>
  <outline>
    <contour>
      <point x="201" y="0" type="line"/>
      <point x="521" y="0" type="line"/>
      <point x="521" y="1522" type="line"/>
      <point x="201" y="1522" type="line"/>
    </contour>
    <contour>
      <point x="365" y="1562" type="line"/>
      <point x="464" y="1595"/>
      <point x="644" y="1756"/>
      <point x="731" y="1868" type="curve"/>
      <point x="514" y="1999" type="line"/>
      <point x="496" y="1948"/>
      <point x="247" y="1713"/>
      <point x="219" y="1687" type="curve"/>
    </contour>
    <contour>
      <point x="789" y="-332" type="line"/>
      <point x="960" y="-326"/>
      <point x="1249" y="-190"/>
      <point x="1302" y="91" type="curve" smooth="yes"/>
      <point x="1330" y="236"/>
      <point x="1321" y="414"/>
      <point x="1321" y="613" type="curve" smooth="yes"/>
      <point x="1321" y="1522" type="line"/>
      <point x="1001" y="1522" type="line"/>
      <point x="1001" y="608" type="line" smooth="yes"/>
      <point x="1001" y="401"/>
      <point x="997" y="231"/>
      <point x="969" y="117" type="curve" smooth="yes"/>
      <point x="931" y="-45"/>
      <point x="816" y="-125"/>
      <point x="712" y="-164" type="curve"/>
    </contour>
    <component base="acute.cap" xOffset="882" yOffset="20"/>
  </outline>
</glyph>
<glyph name=".notdef" format="1">
  <advance width="1882"/>
  <outline>
    <contour>
      <point x="233" y="0" type="line"/>
      <point x="1649" y="0" type="line"/>
      <point x="1649" y="1416" type="line"/>
      <point x="233" y="1416" type="line"/>
    </contour>
    <contour>
      <point x="591" y="219" type="line"/>
      <point x="463" y="363" type="line"/>
      <point x="821" y="705" type="line"/>
      <point x="462" y="1068" type="line"/>
      <point x="585" y="1193" type="line"/>
      <point x="942" y="825" type="line"/>
      <point x="1294" y="1191" type="line"/>
      <point x="1422" y="1067" type="line"/>
      <point x="1059" y="709" type="line"/>
      <point x="1422" y="341" type="line"/>
      <point x="1300" y="219" type="line"/>
      <point x="938" y="587" type="line"/>
    </contour>
  </outline>
</glyph>
<glyph name="acute.cap" format="1">
  <advance width="652"/>
  <outline>
    <contour>
      <point x="231" y="1543" type="line"/>
      <point x="330" y="1576"/>
      <point x="510" y="1737"/>
      <point x="597" y="1849" type="curve"/>
      <point x="380" y="1980" type="line"/>
      <point x="362" y="1929"/>
      <point x="113" y="1694"/>
      <point x="85" y="1668" type="curve"/>
    </contour>
    <contour>
      <point x="227" y="1700" type="move" name="_top"/>
    </contour>
  </outline>
</glyph>
<glyph name="caron.cap" format="1">
  <advance width="769"/>
  <outline>
    <contour>
      <point x="317" y="1576" type="line"/>
      <point x="536" y="1576" type="line"/>
      <point x="803" y="1869" type="line"/>
      <point x="649" y="1960" type="line"/>
      <point x="426" y="1779" type="line"/>
      <point x="206" y="1960" type="line"/>
      <point x="49" y="1868" type="line"/>
    </contour>
    <contour>
      <point x="425" y="1700" type="move" name="_top"/>
    </contour>
  </outline>
</glyph>
<glyph name="caronvertical" format="1">
  <advance width="413"/>
  <outline>
    <contour>
      <point x="243" y="1010" type="line"/>
      <point x="295" y="1070"/>
      <point x="363" y="1267"/>
      <point x="363" y="1440" type="curve" smooth="yes"/>
      <point x="363" y="1575"/>
      <point x="340" y="1663"/>
      <point x="292" y="1708" type="curve"/>
      <point x="77" y="1638" type="line"/>
      <point x="65" y="1574" type="line"/>
      <point x="97" y="1541"/>
      <point x="124" y="1448"/>
      <point x="124" y="1357" type="curve" smooth="yes"/>
      <point x="125" y="1247"/>
      <point x="115" y="1122"/>
      <point x="102" y="1061" type="curve"/>
      <point x="110" y="1038" type="line"/>
    </contour>
  </outline>
</glyph>
<glyph name="circumflex.cap" format="1">
  <advance width="868"/>
  <outline>
    <contour>
      <point x="211" y="1560" type="line"/>
      <point x="433" y="1759" type="line"/>
      <point x="654" y="1560" type="line"/>
      <point x="819" y="1652" type="line"/>
      <point x="543" y="1960" type="line"/>
      <point x="323" y="1960" type="line"/>
      <point x="49" y="1650" type="line"/>
    </contour>
    <contour>
      <point x="433" y="1701" type="move" name="_top"/>
    </contour>
  </outline>
</glyph>
<glyph name="four.numr" format="1">
  <advance width="1181"/>
  <outline>
    <contour>
      <point x="141" y="858" type="line"/>
      <point x="1106" y="858" type="line"/>
      <point x="1106" y="1050" type="line"/>
      <point x="402" y="1050" type="line"/>
      <point x="444" y="1117" type="line"/>
      <point x="842" y="1749" type="line"/>
      <point x="655" y="1841" type="line"/>
      <point x="587" y="1841" type="line"/>
      <point x="89" y="952" type="line"/>
    </contour>
    <contour>
      <point x="686" y="586" type="line"/>
      <point x="942" y="586" type="line"/>
      <point x="942" y="1310" type="line"/>
      <point x="712" y="1310" type="line"/>
      <point x="687" y="1050" type="line"/>
    </contour>
  </outline>
</glyph>
<glyph name="grave.cap" format="1">
  <advance width="652"/>
  <outline>
    <contour>
      <point x="569" y="1668" type="line"/>
      <point x="542" y="1694"/>
      <point x="292" y="1929"/>
      <point x="274" y="1980" type="curve"/>
      <point x="57" y="1849" type="line"/>
      <point x="136" y="1740"/>
      <point x="333" y="1573"/>
      <point x="423" y="1543" type="curve"/>
    </contour>
    <contour>
      <point x="425" y="1700" type="move" name="_top"/>
    </contour>
  </outline>
</glyph>
<glyph name="ij_acutecomb" format="1">
  <advance width="1304"/>
  <outline>
    <contour>
      <point x="174" y="0" type="line"/>
      <point x="486" y="0" type="line"/>
      <point x="486" y="1140" type="line"/>
      <point x="174" y="1140" type="line"/>
    </contour>
    <contour>
      <point x="346" y="1251" type="line"/>
      <point x="426" y="1286"/>
      <point x="693" y="1496"/>
      <point x="752" y="1633" type="curve"/>
      <point x="538" y="1807" type="line"/>
      <point x="436" y="1641"/>
      <point x="310" y="1494"/>
      <point x="197" y="1388" type="curve"/>
    </contour>
    <contour>
      <point x="556" y="-483" type="line"/>
      <point x="581" y="-493"/>
      <point x="692" y="-507"/>
      <point x="731" y="-507" type="curve" smooth="yes"/>
      <point x="990" y="-507"/>
      <point x="1146" y="-342"/>
      <point x="1146" y="82" type="curve" smooth="yes"/>
      <point x="1146" y="1140" type="line"/>
      <point x="834" y="1140" type="line"/>
      <point x="834" y="1" type="line" smooth="yes"/>
      <point x="834" y="-228"/>
      <point x="793" y="-304"/>
      <point x="673" y="-304" type="curve" smooth="yes"/>
      <point x="639" y="-304"/>
      <point x="574" y="-291"/>
      <point x="556" y="-282" type="curve"/>
    </contour>
    <component base="acute" xOffset="751"/>
  </outline>
</glyph>
<glyph name="ring.cap" format="1">
  <advance width="767"/>
  <outline>
    <contour>
      <point x="380" y="1416" type="curve" smooth="yes"/>
      <point x="557" y="1416"/>
      <point x="723" y="1492"/>
      <point x="725" y="1696" type="curve" smooth="yes"/>
      <point x="726" y="1880"/>
      <point x="597" y="1970"/>
      <point x="389" y="1970" type="curve" smooth="yes"/>
      <point x="222" y="1970"/>
      <point x="46" y="1904"/>
      <point x="42" y="1700" type="curve" smooth="yes"/>
      <point x="39" y="1519"/>
      <point x="165" y="1416"/>
    </contour>
    <contour>
      <point x="383" y="1568" type="curve" smooth="yes"/>
      <point x="291" y="1568"/>
      <point x="226" y="1615"/>
      <point x="226" y="1699" type="curve" smooth="yes"/>
      <point x="226" y="1802"/>
      <point x="300" y="1825"/>
      <point x="383" y="1824" type="curve" smooth="yes"/>
      <point x="474" y="1823"/>
      <point x="542" y="1781"/>
      <point x="542" y="1692" type="curve" smooth="yes"/>
      <point x="542" y="1588"/>
      <point x="478" y="1567"/>
    </contour>
    <contour>
      <point x="386" y="1701" type="move" name="_top"/>
    </contour>
  </outline>
</glyph>
<glyph name="three.numr" format="1">
  <advance width="1234"/>
  <outline>
    <contour>
      <point x="289" y="635" type="line"/>
      <point x="350" y="622"/>
      <point x="434" y="588"/>
      <point x="571" y="588" type="curve" smooth="yes"/>
      <point x="897" y="588"/>
      <point x="1042" y="750"/>
      <point x="1042" y="956" type="curve" smooth="yes"/>
      <point x="1042" y="1073"/>
      <point x="954" y="1186"/>
      <point x="792" y="1195" type="curve"/>
      <point x="943" y="1276"/>
      <point x="981" y="1370"/>
      <point x="981" y="1470" type="curve" smooth="yes"/>
      <point x="981" y="1605"/>
      <point x="874" y="1713"/>
      <point x="612" y="1713" type="curve" smooth="yes"/>
      <point x="503" y="1713"/>
      <point x="325" y="1665"/>
      <point x="248" y="1600" type="curve"/>
      <point x="314" y="1443" type="line"/>
      <point x="400" y="1496"/>
      <point x="496" y="1521"/>
      <point x="563" y="1521" type="curve" smooth="yes"/>
      <point x="661" y="1521"/>
      <point x="720" y="1488"/>
      <point x="721" y="1422" type="curve" smooth="yes"/>
      <point x="723" y="1348"/>
      <point x="653" y="1288"/>
      <point x="560" y="1260" type="curve"/>
      <point x="522" y="1251"/>
      <point x="484" y="1244"/>
      <point x="435" y="1237" type="curve"/>
      <point x="434" y="1052" type="line"/>
      <point x="593" y="1085" type="line"/>
      <point x="723" y="1063"/>
      <point x="768" y="1005"/>
      <point x="768" y="943" type="curve" smooth="yes"/>
      <point x="768" y="844"/>
      <point x="700" y="789"/>
      <point x="528" y="788" type="curve" smooth="yes"/>
      <point x="408" y="788"/>
      <point x="347" y="804"/>
      <point x="283" y="819" type="curve"/>
    </contour>
  </outline>
</glyph>
<glyph name="tilde.cap" format="1">
  <advance width="937"/>
  <outline>
    <contour>
      <point x="157" y="1634" type="line"/>
      <point x="194" y="1680"/>
      <point x="253" y="1736"/>
      <point x="311" y="1736" type="curve" smooth="yes"/>
      <point x="425" y="1736"/>
      <point x="449" y="1603"/>
      <point x="610" y="1603" type="curve" smooth="yes"/>
      <point x="764" y="1603"/>
      <point x="863" y="1700"/>
      <point x="908" y="1831" type="curve"/>
      <point x="782" y="1939" type="line"/>
      <point x="745" y="1888"/>
      <point x="694" y="1828"/>
      <point x="627" y="1828" type="curve" smooth="yes"/>
      <point x="524" y="1828"/>
      <point x="495" y="1958"/>
      <point x="333" y="1958" type="curve" smooth="yes"/>
      <point x="180" y="1958"/>
      <point x="76" y="1858"/>
      <point x="32" y="1732" type="curve"/>
    </contour>
    <contour>
      <point x="466" y="1701" type="move" name="_top"/>
    </contour>
  </outline>
</glyph>
<glyph name="two.numr" format="1">
  <advance width="1234"/>
  <outline>
    <contour>
      <point x="229" y="680" type="line"/>
      <point x="1046" y="680" type="line"/>
      <point x="1046" y="921" type="line"/>
      <point x="451" y="895" type="line"/>
      <point x="452" y="817" type="line"/>
      <point x="770" y="987"/>
      <point x="993" y="1179"/>
      <point x="993" y="1424" type="curve" smooth="yes"/>
      <point x="993" y="1551"/>
      <point x="890" y="1723"/>
      <point x="602" y="1723" type="curve" smooth="yes"/>
      <point x="394" y="1723"/>
      <point x="217" y="1613"/>
      <point x="156" y="1517" type="curve"/>
      <point x="264" y="1368" type="line"/>
      <point x="342" y="1466"/>
      <point x="424" y="1519"/>
      <point x="535" y="1519" type="curve" smooth="yes"/>
      <point x="637" y="1519"/>
      <point x="700" y="1474"/>
      <point x="700" y="1366" type="curve" smooth="yes"/>
      <point x="700" y="1175"/>
      <point x="336" y="912"/>
      <point x="186" y="834" type="curve"/>
    </contour>
  </outline>
</glyph>
